<svg width="30" height="30" viewBox="0 0 30 30" fill="none" xmlns="http://www.w3.org/2000/svg">
	<g clip-path="url(#clip0_1_2426)">
		<path
			fill-rule="evenodd"
			clip-rule="evenodd"
			d="M15 30C6.71531 30 0 23.2847 0 15C0 6.71531 6.71531 0 15 0C23.2847 0 30 6.71531 30 15C30 23.2847 23.2847 30 15 30ZM21.7397 13.1438C22.0341 11.1788 20.5369 10.1222 18.4913 9.41719L19.155 6.75469L17.535 6.35156L16.8881 8.94375C16.4625 8.83687 16.0256 8.7375 15.5897 8.63812L16.2412 6.02906L14.6213 5.625L13.9575 8.28656C13.605 8.20594 13.2581 8.12719 12.9225 8.04281L12.9244 8.03437L10.6894 7.47656L10.2581 9.20719C10.2581 9.20719 11.4609 9.48281 11.4356 9.49969C12.0919 9.66375 12.21 10.0978 12.1903 10.4428L11.4347 13.4756C11.4797 13.4869 11.5378 13.5037 11.6034 13.5291L11.4319 13.4869L10.3725 17.7356C10.2919 17.9344 10.0884 18.2334 9.62906 18.12C9.64594 18.1434 8.45156 17.8266 8.45156 17.8266L7.64719 19.6809L9.75656 20.2069C10.1484 20.3053 10.5328 20.4084 10.9106 20.505L10.2403 23.1975L11.8594 23.6006L12.5231 20.9381C12.9656 21.0572 13.395 21.1678 13.815 21.2728L13.1531 23.9241L14.7731 24.3272L15.4434 21.6403C18.2072 22.1634 20.2847 21.9525 21.1594 19.4531C21.8644 17.4412 21.1247 16.2797 19.6706 15.5231C20.73 15.2794 21.5269 14.5828 21.7397 13.1438ZM18.0366 18.3356C17.5369 20.3484 14.1478 19.26 13.0491 18.9872L13.9397 15.42C15.0384 15.6947 18.5606 16.2375 18.0366 18.3356ZM18.5381 13.1147C18.0816 14.9456 15.2616 14.0147 14.3475 13.7869L15.1537 10.5525C16.0678 10.7803 19.0144 11.205 18.5381 13.1147Z"
			fill="#621FBE"
		/>
	</g>
	<defs>
		<clipPath id="clip0_1_2426">
			<rect width="30" height="30" fill="white" />
		</clipPath>
	</defs>
</svg>