<svg width="30" height="21" viewBox="0 0 30 21" fill="none" xmlns="http://www.w3.org/2000/svg">
	<g clip-path="url(#clip0_1_2476)">
		<path
			d="M28 20.8125H2C1.46957 20.8125 0.960859 20.5952 0.585786 20.2084C0.210714 19.8216 0 19.297 0 18.75L0 2.25C0 1.70299 0.210714 1.17839 0.585786 0.791592C0.960859 0.404799 1.46957 0.1875 2 0.1875L28 0.1875C28.5304 0.1875 29.0391 0.404799 29.4142 0.791592C29.7893 1.17839 30 1.70299 30 2.25V18.75C30 19.297 29.7893 19.8216 29.4142 20.2084C29.0391 20.5952 28.5304 20.8125 28 20.8125ZM23.7367 17.1335H23.725C23.611 17.1334 23.4982 17.1577 23.3938 17.2049C23.2893 17.2521 23.1955 17.3211 23.1183 17.4077L23.1175 17.4085C22.9533 17.594 22.8623 17.836 22.8625 18.0872C22.8626 18.3383 22.9539 18.5802 23.1183 18.7655L23.1175 18.7646C23.2692 18.9339 23.485 19.0396 23.725 19.0396H23.7367C23.8441 19.0472 23.9508 19.0268 24.0485 18.9802C24.1462 18.9337 24.231 18.8625 24.295 18.7732L24.2958 18.7715V19.0001H24.6733V16.4486H24.2958V17.4025C24.2343 17.3187 24.1549 17.2507 24.0636 17.2039C23.9724 17.1571 23.8719 17.1327 23.77 17.1327L23.735 17.1335H23.7367ZM20.195 17.1335H20.1758C19.935 17.1335 19.7175 17.2366 19.5633 17.4025C19.3989 17.5905 19.308 17.8348 19.3081 18.088C19.3083 18.3412 19.3995 18.5854 19.5642 18.7732L19.5633 18.7723C19.7183 18.9382 19.9358 19.0413 20.1767 19.0413H20.1967L20.2333 19.0422C20.3325 19.0423 20.4303 19.018 20.5185 18.9714C20.6068 18.9248 20.683 18.8571 20.7408 18.7741L20.7425 18.7723V19.0009H21.1342V17.1877H20.7433V17.4025C20.6802 17.3149 20.5972 17.2445 20.5016 17.1976C20.406 17.1507 20.3008 17.1287 20.195 17.1335ZM18.4883 17.1335L18.4533 17.1327C18.208 17.1327 17.9727 17.2332 17.7993 17.412C17.6258 17.5909 17.5283 17.8336 17.5283 18.0866C17.5283 18.3396 17.6258 18.5822 17.7993 18.7611C17.9727 18.94 18.208 19.0405 18.4533 19.0405L18.49 19.0396H18.4883L18.5225 19.0405C18.7475 19.0405 18.9533 18.9597 19.1158 18.8239L19.1142 18.8256L18.9317 18.5034C18.8111 18.6017 18.6636 18.6582 18.51 18.6649H18.5083C18.4317 18.67 18.355 18.6582 18.2832 18.6303C18.2113 18.6025 18.1461 18.5592 18.0917 18.5034C17.9948 18.3876 17.9416 18.2397 17.9418 18.0868C17.942 17.9339 17.9954 17.7862 18.0925 17.6706L18.0917 17.6715C18.1392 17.6204 18.1962 17.5797 18.2594 17.5519C18.3225 17.5241 18.3905 17.5099 18.4592 17.5099H18.4767H18.4758C18.6416 17.5103 18.8025 17.5675 18.9333 17.6723L18.9317 17.6706L19.1142 17.3484C18.9419 17.208 18.7287 17.132 18.5092 17.1327L18.4883 17.1335ZM15.0883 17.1335H15.0675C14.9543 17.1333 14.8423 17.1571 14.7383 17.2033C14.6344 17.2496 14.5408 17.3174 14.4633 17.4025C14.3802 17.495 14.3156 17.6035 14.2731 17.7217C14.2306 17.84 14.2112 17.9657 14.2158 18.0917V18.09L14.215 18.1295C14.215 18.383 14.3125 18.6134 14.47 18.7818C14.6283 18.9442 14.8467 19.0439 15.0875 19.0439L15.1158 19.043H15.1142L15.1483 19.0439C15.4092 19.0439 15.6475 18.9468 15.8325 18.7861L15.8308 18.7878L15.6483 18.493C15.5085 18.6209 15.3285 18.6923 15.1417 18.6941C15.0149 18.7055 14.8879 18.666 14.7885 18.5839C14.6892 18.5018 14.6244 18.3834 14.6075 18.2533V18.2507H15.9225V18.09C15.9342 17.8363 15.8496 17.5878 15.6867 17.3973L15.6875 17.3982C15.6143 17.3145 15.5248 17.2476 15.4249 17.2019C15.325 17.1561 15.2168 17.1325 15.1075 17.1327H15.0892L15.0883 17.1335ZM12.5242 17.1877V17.5503H12.8883V18.3702C12.8883 18.8153 13.0942 19.0413 13.5 19.0413H13.5142C13.6825 19.0413 13.8383 18.9898 13.9692 18.9021L13.9658 18.9038L13.8608 18.5678C13.7575 18.628 13.6412 18.6605 13.5225 18.6623C13.3575 18.6623 13.2733 18.5635 13.2733 18.3676V17.5512H13.8983V17.1885H13.2733V16.6385H12.8825V17.1885L12.5242 17.1877ZM10.885 18.5025L10.7158 18.8119C10.9217 18.9554 11.175 19.0405 11.4475 19.0405H11.4725H11.4708L11.5258 19.0422C11.725 19.0422 11.9108 18.9812 12.0667 18.8763L12.0625 18.8789C12.1287 18.8325 12.1828 18.7701 12.2203 18.6971C12.2578 18.6242 12.2774 18.5429 12.2775 18.4604V18.4484C12.2775 18.1459 12.0717 17.968 11.6658 17.9121L11.4842 17.8846C11.2842 17.8494 11.1842 17.7866 11.1842 17.6973C11.1842 17.5632 11.2933 17.4962 11.51 17.4962H11.5142C11.7183 17.4962 11.91 17.5512 12.0758 17.6474L12.07 17.644L12.2267 17.3217C12.0096 17.1886 11.7598 17.1232 11.5075 17.1335H11.51L11.465 17.1327C11.2887 17.1324 11.1168 17.1899 10.9742 17.2968L10.9767 17.2951C10.9158 17.344 10.8666 17.4065 10.8328 17.478C10.799 17.5495 10.7815 17.628 10.7817 17.7076V17.7256V17.7248C10.7817 18.0187 10.9875 18.1948 11.3933 18.2481L11.5625 18.2756C11.77 18.3117 11.875 18.3745 11.875 18.4638C11.875 18.6151 11.7417 18.6924 11.4708 18.6924H11.4633C11.2549 18.6929 11.0515 18.6262 10.8817 18.5016L10.885 18.5042V18.5025ZM9.4 17.1327H9.37917C9.26609 17.1325 9.15419 17.1562 9.0504 17.2025C8.94661 17.2488 8.85316 17.3166 8.77583 17.4016C8.61539 17.5918 8.5271 17.8355 8.52725 18.0876C8.5274 18.3397 8.61599 18.5832 8.77667 18.7732L8.77583 18.7723C8.85331 18.8574 8.94692 18.9252 9.05084 18.9715C9.15477 19.0178 9.2668 19.0415 9.38 19.0413H9.40167C9.50906 19.0472 9.61539 19.0259 9.71299 18.9793C9.81059 18.9328 9.89567 18.8623 9.96083 18.7741L9.96167 18.7723V19.0009H10.3392V17.1877H9.96167V17.4025C9.89548 17.3184 9.81189 17.2505 9.71702 17.204C9.62215 17.1575 9.51839 17.1334 9.41333 17.1335L9.4 17.1327ZM21.64 17.1868V19.0001H22.0175V17.98C22.0175 17.6689 22.1442 17.5108 22.395 17.5108H22.4033C22.4858 17.5108 22.5642 17.5305 22.6333 17.5658L22.63 17.5641L22.7467 17.1877C22.6686 17.1516 22.5839 17.1331 22.4983 17.1335L22.4717 17.1344H22.4733H22.4592C22.3695 17.1343 22.2814 17.159 22.204 17.2058C22.1266 17.2527 22.0628 17.32 22.0192 17.4008L22.0175 17.4034V17.1885L21.64 17.1868ZM16.315 17.1868V19.0001H16.7058V17.98C16.7058 17.6689 16.8325 17.5108 17.0833 17.5108H17.0917C17.1742 17.5108 17.2525 17.5305 17.3217 17.5658L17.3183 17.5641L17.4358 17.1877C17.3542 17.1516 17.2663 17.1332 17.1775 17.1335H17.1617H17.1475C17.0579 17.1334 16.9699 17.1581 16.8927 17.2049C16.8154 17.2518 16.7518 17.3191 16.7083 17.3999L16.7067 17.4025V17.1877L16.315 17.1868ZM7.40833 17.5091C7.6675 17.5091 7.79917 17.6715 7.79917 17.9903V18.9975H8.19V17.8562L8.19083 17.8279C8.19097 17.6465 8.12285 17.4721 8.00083 17.3415C7.86326 17.2087 7.68178 17.1349 7.49333 17.1352H7.48583C7.36571 17.1273 7.24571 17.1527 7.1384 17.209C7.03109 17.2652 6.9404 17.3502 6.87583 17.4549L6.87417 17.4575C6.81524 17.3525 6.72896 17.2667 6.62511 17.2097C6.52127 17.1528 6.40402 17.1269 6.28667 17.1352H6.28833H6.28083C6.18295 17.1353 6.08652 17.1596 5.99965 17.2061C5.91278 17.2526 5.83802 17.32 5.78167 17.4025L5.78 17.4042V17.1894H5.39083V19.0027H5.78167V17.9937C5.78167 17.6732 5.92667 17.5125 6.21167 17.5125C6.47083 17.5125 6.6025 17.6749 6.6025 17.9937V19.0009H6.98V17.9937C6.98 17.6723 7.125 17.5125 7.40917 17.5125L7.40833 17.5091ZM19.0883 1.90625H19.0608C17.7577 1.90409 16.4842 2.30721 15.4067 3.06297L15.4292 3.04836C16.5171 3.95788 17.3173 5.18135 17.7275 6.56234L17.7408 6.61391C17.9375 7.25414 18.05 7.98977 18.05 8.75375C18.05 9.50914 17.9392 10.237 17.7342 10.9228L17.7475 10.8713C17.3475 12.2659 16.5431 13.5008 15.4425 14.4102L15.4292 14.4213C16.5097 15.1688 17.7822 15.5662 19.0833 15.5626C20.0167 15.5626 20.9042 15.3623 21.7083 15.0014L21.6658 15.0186C23.242 14.3377 24.4994 13.0509 25.1717 11.4307L25.1875 11.3869C25.5208 10.6048 25.715 9.69305 25.715 8.73484C25.715 7.77664 25.5208 6.86484 25.1708 6.03984L25.1875 6.08281C24.5265 4.4559 23.2758 3.15933 21.7017 2.46914L21.6592 2.45281C20.8506 2.09108 19.9781 1.90586 19.0967 1.90883H19.0875L19.0883 1.90625ZM10.9117 1.90625H10.9025C10.0062 1.90513 9.11943 2.09593 8.29833 2.46656L8.34 2.44937C6.75997 3.12707 5.49923 4.41457 4.82667 6.03727L4.81083 6.08109C4.4775 6.86312 4.28333 7.77492 4.28333 8.73313C4.28333 9.69133 4.4775 10.6031 4.8275 11.4281L4.81083 11.3852C5.47109 13.0106 6.71889 14.3073 8.29 15.0005L8.3325 15.0169C9.09417 15.3606 9.9825 15.5609 10.915 15.5609C12.2254 15.5632 13.5064 15.1603 14.5925 14.4041L14.5692 14.4196C13.4753 13.5143 12.672 12.2895 12.2642 10.9056L12.2517 10.8549C12.05 10.1699 11.9486 9.45763 11.9508 8.74172C11.9498 7.65407 12.1831 6.57978 12.6339 5.59649C13.0847 4.61321 13.7417 3.7455 14.5575 3.05609L14.57 3.04578C13.4981 2.29847 12.233 1.90083 10.9392 1.90453H10.9092H10.9108L10.9117 1.90625ZM15 3.36977C13.947 4.20901 13.1695 5.36157 12.7725 6.67148L12.76 6.71875C12.5592 7.37449 12.458 8.05834 12.46 8.74602C12.46 9.46273 12.5675 10.1528 12.7667 10.8016L12.7542 10.7535C13.1429 12.0772 13.9228 13.2427 14.985 14.087L15 14.0982C16.0579 13.2642 16.8385 12.112 17.2342 10.8008L17.2467 10.7544C17.4438 10.1044 17.543 9.42705 17.5408 8.74602C17.5408 8.02156 17.4308 7.32461 17.2283 6.66977L17.2408 6.71789C16.85 5.39562 16.073 4.22996 15.0158 3.38008L15.0008 3.36891L15 3.36977ZM23.7883 18.6641H23.7742C23.7047 18.6641 23.636 18.6492 23.5725 18.6204C23.5089 18.5915 23.4519 18.5493 23.405 18.4965C23.3079 18.3832 23.2543 18.2372 23.2545 18.086C23.2546 17.9348 23.3085 17.7888 23.4058 17.6758L23.405 17.6766C23.4547 17.6232 23.5143 17.5808 23.5804 17.5517C23.6464 17.5227 23.7174 17.5078 23.7892 17.5078C23.8609 17.5078 23.932 17.5227 23.998 17.5517C24.064 17.5808 24.1236 17.6232 24.1733 17.6766C24.2702 17.7911 24.3234 17.9379 24.3233 18.0897C24.3231 18.2416 24.2696 18.3883 24.1725 18.5025L24.1733 18.5016C24.1255 18.5531 24.0681 18.5941 24.0045 18.622C23.9409 18.6499 23.8725 18.6642 23.8033 18.6641H23.7883ZM20.2342 18.6641H20.2158C20.1485 18.6641 20.0819 18.6498 20.0201 18.6222C19.9583 18.5945 19.9027 18.5541 19.8567 18.5034C19.7632 18.3858 19.7122 18.2384 19.7123 18.0864C19.7125 17.9344 19.7638 17.7871 19.8575 17.6698L19.8567 17.6706C19.9025 17.6196 19.9581 17.5789 20.0199 17.5511C20.0817 17.5233 20.1484 17.509 20.2158 17.5091H20.235H20.2492C20.395 17.5091 20.5267 17.5735 20.6175 17.6766C20.7108 17.7806 20.7675 17.9198 20.7675 18.0728V18.09V18.0891L20.7683 18.1123C20.7686 18.2576 20.7173 18.3979 20.6242 18.5068L20.625 18.5059C20.5779 18.5561 20.5214 18.596 20.4589 18.6232C20.3965 18.6503 20.3294 18.6642 20.2617 18.6641L20.2333 18.6632H20.235L20.2342 18.6641ZM9.4525 18.6641L9.42833 18.6649C9.3599 18.6651 9.29215 18.6509 9.22925 18.6231C9.16634 18.5953 9.1096 18.5546 9.0625 18.5034C8.96904 18.3858 8.91803 18.2384 8.91818 18.0864C8.91833 17.9344 8.96963 17.7871 9.06333 17.6698L9.0625 17.6706C9.11283 17.6163 9.17396 17.5737 9.24171 17.546C9.30945 17.5183 9.38221 17.506 9.455 17.5099H9.47333C9.5412 17.5098 9.6083 17.5247 9.67012 17.5536C9.73193 17.5826 9.78701 17.6248 9.83167 17.6775L9.8325 17.6784C9.92508 17.7948 9.97561 17.9408 9.97546 18.0914C9.97531 18.2421 9.92449 18.3879 9.83167 18.5042L9.8325 18.5034C9.78638 18.5545 9.73052 18.5952 9.66843 18.623C9.60634 18.6508 9.53936 18.6651 9.47167 18.6649H9.45333H9.45417L9.4525 18.6641ZM15.5333 17.925H14.6225C14.6341 17.8088 14.687 17.7011 14.7711 17.6228C14.8551 17.5445 14.9643 17.501 15.0776 17.5008C15.1909 17.5006 15.3002 17.5436 15.3845 17.6216C15.4688 17.6997 15.5221 17.8071 15.5342 17.9233V17.925H15.5333Z"
			fill="#621FBE"
		/>
	</g>
	<defs>
		<clipPath id="clip0_1_2476">
			<rect width="30" height="20.625" fill="white" transform="translate(0 0.1875)" />
		</clipPath>
	</defs>
</svg>