<svg width="30" height="30" viewBox="0 0 30 30" fill="none" xmlns="http://www.w3.org/2000/svg">
	<path
		d="M19.3117 20.6506L15.5492 16.8881C15.4117 16.7506 15.2492 16.7256 15.1617 16.7256C15.0742 16.7256 14.9117 16.7506 14.7742 16.8881L10.9992 20.6631C10.5742 21.0881 9.91172 21.7756 7.69922 21.7756L12.3367 26.4006C13.0398 27.1029 13.993 27.4973 14.9867 27.4973C15.9805 27.4973 16.9336 27.1029 17.6367 26.4006L22.2867 21.7631C21.1492 21.7631 20.1992 21.5381 19.3117 20.6506ZM10.9992 9.33811L14.7742 13.1131C14.8742 13.2131 15.0242 13.2756 15.1617 13.2756C15.2992 13.2756 15.4492 13.2131 15.5492 13.1131L19.2867 9.37561C20.1742 8.45061 21.1867 8.23811 22.3242 8.23811L17.6742 3.60061C16.9711 2.89835 16.018 2.50391 15.0242 2.50391C14.0305 2.50391 13.0773 2.89835 12.3742 3.60061L7.73672 8.22561C9.93672 8.22561 10.6117 8.95061 10.9992 9.33811Z"
		fill="#621FBE"
	/>
	<path
		d="M26.3881 12.3129L23.5756 9.48789H22.0006C21.3256 9.48789 20.6506 9.76289 20.1881 10.2504L16.4381 14.0004C16.0881 14.3504 15.6256 14.5254 15.1631 14.5254C14.6868 14.5187 14.231 14.331 13.8881 14.0004L10.1131 10.2129C9.63811 9.73789 8.98811 9.46289 8.30061 9.46289H6.46311L3.60061 12.3379C2.89835 13.041 2.50391 13.9941 2.50391 14.9879C2.50391 15.9816 2.89835 16.9348 3.60061 17.6379L6.46311 20.5129H8.31311C8.98811 20.5129 9.63811 20.2379 10.1256 19.7629L13.9006 15.9879C14.2506 15.6379 14.7131 15.4629 15.1756 15.4629C15.6381 15.4629 16.1006 15.6379 16.4506 15.9879L20.2131 19.7504C20.6881 20.2254 21.3381 20.5004 22.0256 20.5004H23.6006L26.4131 17.6754C27.1183 16.9596 27.5115 15.9938 27.5068 14.989C27.5022 13.9842 27.1 13.0221 26.3881 12.3129Z"
		fill="#621FBE"
	/>
</svg>
