<svg width="30" height="30" viewBox="0 0 30 30" fill="none" xmlns="http://www.w3.org/2000/svg">
	<g clip-path="url(#clip0_1_2459)">
		<path
			d="M24.4856 13.713C24.4856 13.713 24.8813 15.6508 24.9703 16.0567H23.2313L24.0647 13.7908C24.0544 13.8067 24.2363 13.3164 24.3403 13.0145L24.4856 13.713ZM30.0009 5.83234V24.1661C30.0007 24.8291 29.7372 25.465 29.2683 25.9338C28.7995 26.4027 28.1637 26.6662 27.5006 26.6664H2.50031C1.83726 26.6662 1.20144 26.4027 0.732599 25.9338C0.263753 25.465 0.000248472 24.8291 0 24.1661V5.83234C0.000248472 5.1693 0.263753 4.53348 0.732599 4.06463C1.20144 3.59578 1.83726 3.33228 2.50031 3.33203H27.5006C28.1637 3.33228 28.7995 3.59578 29.2683 4.06463C29.7372 4.53348 30.0007 5.1693 30.0009 5.83234ZM7.94344 18.9161L11.235 10.833H9.02156L6.975 16.3539L6.75094 15.2345L6.02156 11.5155C5.90156 10.9998 5.53219 10.8536 5.07375 10.833H1.70438L1.66781 10.9942C2.43945 11.1835 3.17962 11.4835 3.86531 11.8848L5.73 18.9161H7.94344ZM12.8606 18.9264L14.1731 10.833H12.0797L10.7728 18.9264H12.8606ZM20.1469 16.2808C20.1572 15.3592 19.5947 14.6561 18.3919 14.0777C17.6578 13.7073 17.2097 13.458 17.2097 13.0773C17.22 12.7333 17.5903 12.3789 18.4125 12.3789C18.948 12.3638 19.4801 12.4689 19.9697 12.6864L20.1572 12.7745L20.4441 11.0242C19.8456 10.7951 19.2099 10.6785 18.5691 10.6802C16.5009 10.6802 15.0478 11.7845 15.0375 13.3567C15.0216 14.5183 16.0791 15.1642 16.8713 15.5542C17.6784 15.9498 17.955 16.2105 17.955 16.5592C17.9447 17.1011 17.2987 17.3505 16.6997 17.3505C15.8663 17.3505 15.4181 17.2202 14.7356 16.9183L14.46 16.788L14.1684 18.6058C14.6578 18.8298 15.5644 19.0277 16.5019 19.038C18.6994 19.0427 20.1319 17.9542 20.1478 16.278L20.1469 16.2808ZM27.5006 18.9264L25.8131 10.833H24.1931C23.6934 10.833 23.3128 10.9792 23.0991 11.5052L19.9894 18.9273H22.1869C22.1869 18.9273 22.5459 17.927 22.6247 17.7142H25.3125C25.3753 18.0011 25.5628 18.9273 25.5628 18.9273L27.5006 18.9264Z"
			fill="#621FBE"
		/>
	</g>
	<defs>
		<clipPath id="clip0_1_2459">
			<rect width="30" height="30" fill="white" />
		</clipPath>
	</defs>
</svg>