<svg width="27" height="28" viewBox="0 0 27 28" fill="none" xmlns="http://www.w3.org/2000/svg">
	<path d="M12.1277 12.8778C12.0868 10.8895 11.6754 8.9275 10.9157 7.0973C6.06742 9.41605 2.50599 13.7911 1.28858 18.9536C2.00103 20.6254 3.0342 22.1337 4.32675 23.3887C5.55593 19.0111 8.33833 15.2621 12.1277 12.8778ZM10.1575 5.52777C9.34539 4.07863 8.31048 2.77307 7.09261 1.66136C2.23367 4.3848 -0.638973 10.0231 0.418245 16.0004C2.20163 11.4559 5.6723 7.68793 10.1575 5.52777ZM20.1744 14.5567C20.6335 9.09886 18.7167 3.7559 14.9684 0.0973015C14.1834 0.00433272 12.2132 -0.20348 9.6876 0.562145C12.7776 3.84168 14.5584 8.18627 14.68 12.7421C16.3816 13.7005 18.2466 14.3164 20.1744 14.5567ZM13.516 15.0762C11.8552 16.1089 10.4019 17.4564 9.23374 19.0465C13.6121 22.1801 19.0851 23.1536 24.0508 21.6606C25.119 20.1948 25.8855 18.5222 26.3041 16.7442C24.8921 17.1127 23.4415 17.3037 21.9844 17.3129C19.0691 17.3075 16.1697 16.5418 13.516 15.0762ZM8.26729 20.5286C7.45569 21.9504 6.89505 23.5036 6.55332 25.1332C8.92188 26.6222 11.6891 27.307 14.4601 27.09C17.2311 26.8729 19.8645 25.7652 21.9844 23.9246C15.9562 24.8051 11.1293 22.5684 8.26729 20.5286ZM17.8944 0.808239C20.8471 4.65824 22.2995 9.62387 21.8776 14.677C23.5043 14.6805 25.1211 14.4184 26.6672 13.9004C26.6672 13.7911 26.6832 13.6817 26.6832 13.5723C26.6832 7.67699 23.015 2.68402 17.8944 0.808239Z" fill="#621FBE"/>
</svg>
