<svg width="27" height="28" fill="none" xmlns="http://www.w3.org/2000/svg"><path d="M12.128 12.878a15.938 15.938 0 0 0-1.212-5.78c-4.849 2.318-8.41 6.693-9.627 11.856a13.624 13.624 0 0 0 3.038 4.435c1.229-4.378 4.011-8.127 7.8-10.511Zm-1.97-7.35A15.479 15.479 0 0 0 7.093 1.66C2.233 4.385-.64 10.023.418 16.001a19.601 19.601 0 0 1 9.74-10.473Zm10.016 9.029c.46-5.458-1.457-10.801-5.206-14.46-.785-.093-2.755-.3-5.28.465 3.09 3.28 4.87 7.624 4.992 12.18a14.966 14.966 0 0 0 5.494 1.815Zm-6.658.52a15.424 15.424 0 0 0-4.282 3.97c4.378 3.133 9.851 4.107 14.817 2.614a13.665 13.665 0 0 0 2.253-4.917c-1.412.369-2.862.56-4.32.569-2.915-.005-5.814-.771-8.468-2.237Zm-5.249 5.452c-.811 1.421-1.372 2.975-1.714 4.604a12.946 12.946 0 0 0 7.907 1.957 13.028 13.028 0 0 0 7.524-3.165c-6.028.88-10.855-1.357-13.717-3.396ZM17.894.809c2.953 3.85 4.405 8.815 3.984 13.868a14.971 14.971 0 0 0 4.79-.777c0-.109.015-.218.015-.328 0-5.895-3.668-10.888-8.789-12.764Z" fill="#621FBE"/></svg>