<svg width="25" height="24" fill="none" xmlns="http://www.w3.org/2000/svg"><path d="M1.525 15.954c-.185-.493.088-1.037.603-1.143a6.406 6.406 0 0 1 1.294-.129c1.181 0 2.25.28 3.204.84.506.296.532.986.118 1.4l-2.14 2.14c-.407.408-1.076.39-1.42-.072a12.372 12.372 0 0 1-1.659-3.036Zm14.509-5.894c.35-.358.908-.396 1.334-.133 1.752 1.084 3.608 1.44 5.563 1.068.611-.117 1.22.268 1.224.89V12c0 1.201-.292 2.542-.84 4.023-.391 1.05-.849 1.957-1.367 2.717-.325.476-.994.496-1.402.09l-5.927-5.909a1 1 0 0 1-.009-1.407l1.424-1.454ZM7.88 18.255c.441-.44 1.18-.375 1.445.19.574 1.228.714 2.529.417 3.906-.112.52-.66.802-1.16.62a12.1 12.1 0 0 1-2.59-1.3c-.49-.328-.52-1.017-.102-1.433l1.99-1.983Zm4.127-4.139a1 1 0 0 1 1.407.009l5.905 5.924c.408.409.388 1.081-.077 1.425-2.022 1.494-4.305 2.226-6.832 2.192-.633-.009-1.041-.641-.947-1.267a8.89 8.89 0 0 0 .097-1.327c0-.723-.163-1.574-.49-2.542a10.905 10.905 0 0 0-.702-1.656c-.23-.43-.184-.973.165-1.315l1.473-1.443Zm-2.565.128c-.375.376-.976.388-1.412.084a7.809 7.809 0 0 0-3.023-1.267 8.192 8.192 0 0 0-2.934-.04c-.618.107-1.236-.282-1.24-.91v-.11c0-1.202.29-2.543.839-4.024.391-1.048.847-1.954 1.365-2.714.325-.477.997-.496 1.405-.087l6.31 6.34a1 1 0 0 1 0 1.411l-1.31 1.317Zm7.987-8.007c-.42.42-1.118.387-1.424-.122-.854-1.418-1.09-2.925-.709-4.517a.833.833 0 0 1 1.121-.582 12.1 12.1 0 0 1 1.627.793 17.2 17.2 0 0 1 1.41.89c.476.336.501 1.011.09 1.423L17.43 6.237Zm6.025 1.805c.188.499-.092 1.05-.615 1.154a6.579 6.579 0 0 1-1.274.122 6.3 6.3 0 0 1-2.58-.55c-.582-.256-.655-1.013-.203-1.46l1.935-1.91c.422-.416 1.116-.377 1.445.117.524.787.954 1.628 1.292 2.527ZM13.421 10.26a1 1 0 0 1-1.41 0L5.673 3.952c-.411-.409-.391-1.084.075-1.428 2.017-1.49 4.295-2.221 6.823-2.19.638.009 1.048.651.951 1.282a8.68 8.68 0 0 0-.096 1.312c0 .84.187 1.784.571 2.845.244.664.51 1.243.82 1.736.29.458.286 1.076-.098 1.458L13.42 10.26Z" fill="url(#a)"/><defs><linearGradient id="a" x1="8.121" y1="7.625" x2="21.245" y2="18.556" gradientUnits="userSpaceOnUse"><stop stop-color="#fff"/><stop offset="1" stop-color="#DBE9FF"/></linearGradient></defs></svg>