<svg width="30" height="30" fill="none" xmlns="http://www.w3.org/2000/svg"><g clip-path="url(#a)"><path fill-rule="evenodd" clip-rule="evenodd" d="M15 30C6.715 30 0 23.285 0 15S6.715 0 15 0s15 6.715 15 15-6.715 15-15 15Zm6.74-16.856c.294-1.965-1.203-3.022-3.249-3.727l.664-2.662-1.62-.403-.647 2.592a58.805 58.805 0 0 0-1.298-.306l.651-2.609-1.62-.404-.664 2.662c-.352-.081-.699-.16-1.035-.244l.002-.009-2.235-.557-.43 1.73s1.202.276 1.177.293c.656.164.774.598.754.943l-.755 3.033c.045.01.103.028.168.053l-.171-.042-1.06 4.249c-.08.198-.284.497-.743.384.017.023-1.177-.293-1.177-.293l-.805 1.854 2.11.526c.391.098.776.201 1.154.298l-.67 2.693 1.618.403.664-2.663c.443.12.872.23 1.292.335l-.662 2.651 1.62.403.67-2.687c2.764.523 4.842.313 5.716-2.187.705-2.012-.034-3.173-1.488-3.93 1.059-.244 1.856-.94 2.069-2.38Zm-3.703 5.192c-.5 2.012-3.89.924-4.988.651l.89-3.567c1.1.275 4.622.818 4.098 2.916Zm.501-5.221c-.456 1.83-3.276.9-4.19.672l.806-3.235c.914.228 3.86.653 3.384 2.563Z" fill="#621FBE"/></g><defs><clipPath id="a"><path fill="#fff" d="M0 0h30v30H0z"/></clipPath></defs></svg>