<svg width="21" height="18" viewBox="0 0 21 18" fill="none" xmlns="http://www.w3.org/2000/svg">
	<g clip-path="url(#clip0_1_2055)">
		<path
			d="M15.125 6.75C15.125 3.64219 11.852 1.125 7.8125 1.125C3.77305 1.125 0.5 3.64219 0.5 6.75C0.5 7.95586 0.995703 9.0668 1.83594 9.98438C1.36484 11.0461 0.587891 11.8898 0.577344 11.9004C0.5 11.9812 0.478906 12.1008 0.524609 12.2063C0.570312 12.3117 0.66875 12.375 0.78125 12.375C2.06797 12.375 3.1332 11.9426 3.89961 11.4961C5.03164 12.048 6.37109 12.375 7.8125 12.375C11.852 12.375 15.125 9.85781 15.125 6.75ZM19.4141 14.4844C20.2543 13.5703 20.75 12.4559 20.75 11.25C20.75 8.89805 18.8691 6.88359 16.2043 6.04336C16.2359 6.27539 16.25 6.51094 16.25 6.75C16.25 10.473 12.4637 13.5 7.8125 13.5C7.43281 13.5 7.06367 13.4719 6.69805 13.4332C7.80547 15.4547 10.407 16.875 13.4375 16.875C14.8789 16.875 16.2184 16.5516 17.3504 15.9961C18.1168 16.4426 19.182 16.875 20.4688 16.875C20.5812 16.875 20.6832 16.8082 20.7254 16.7063C20.7711 16.6043 20.75 16.4848 20.6727 16.4004C20.6621 16.3898 19.8852 15.5496 19.4141 14.4844Z"
			fill="#621fbe"
		/>
	</g>
	<defs>
		<clipPath id="clip0_1_2055">
			<rect width="20.25" height="18" fill="white" transform="translate(0.5)" />
		</clipPath>
	</defs>
</svg>
