<svg width="21" height="18" fill="none" xmlns="http://www.w3.org/2000/svg"><g clip-path="url(#a)"><path d="M15.125 6.75c0-3.108-3.273-5.625-7.313-5.625C3.774 1.125.5 3.642.5 6.75c0 1.206.496 2.317 1.336 3.234C1.365 11.046.588 11.89.577 11.9a.28.28 0 0 0-.052.306.275.275 0 0 0 .256.169c1.287 0 2.352-.432 3.119-.879a8.946 8.946 0 0 0 3.913.879c4.039 0 7.312-2.517 7.312-5.625Zm4.29 7.734c.84-.914 1.335-2.028 1.335-3.234 0-2.352-1.88-4.366-4.546-5.207.032.232.046.468.046.707 0 3.723-3.786 6.75-8.438 6.75-.38 0-.748-.028-1.114-.067 1.107 2.022 3.709 3.442 6.74 3.442 1.44 0 2.78-.323 3.912-.879.767.447 1.832.879 3.119.879a.282.282 0 0 0 .204-.475c-.01-.01-.788-.85-1.259-1.916Z" fill="#621fbe"/></g><defs><clipPath id="a"><path fill="#fff" transform="translate(.5)" d="M0 0h20.25v18H0z"/></clipPath></defs></svg>