<svg width="21" height="18" fill="none" xmlns="http://www.w3.org/2000/svg"><path d="M17.032 15.5H4.036c-.275 0-.5.281-.5.625v1.25c0 .344.225.625.5.625h12.996c.275 0 .5-.281.5-.625v-1.25c0-.344-.225-.625-.5-.625Zm2-12.5c-.828 0-1.5.84-1.5 1.875 0 .277.05.535.137.773l-2.261 1.696c-.482.36-1.103.156-1.381-.453L11.48 1.32c.334-.344.553-.86.553-1.446 0-1.035-.672-1.875-1.5-1.875s-1.5.84-1.5 1.875c0 .586.22 1.102.553 1.445L7.041 6.89c-.278.61-.902.813-1.38.454L3.4 5.648c.085-.234.138-.496.138-.773C3.54 3.84 2.868 3 2.04 3 1.213 3 .538 3.84.538 4.875c0 1.035.672 1.875 1.5 1.875.08 0 .162-.016.24-.031l2.259 7.531h11.996l2.259-7.531c.078.015.16.031.24.031.828 0 1.5-.84 1.5-1.875 0-1.035-.672-1.875-1.5-1.875Z" fill="#FAF8FB"/></svg>