<svg width="21" height="18" viewBox="0 0 21 18" fill="none" xmlns="http://www.w3.org/2000/svg">
	<path d="M17.0321 15.5H4.03604C3.76112 15.5 3.53619 15.7812 3.53619 16.125V17.375C3.53619 17.7188 3.76112 18 4.03604 18H17.0321C17.307 18 17.5319 17.7188 17.5319 17.375V16.125C17.5319 15.7812 17.307 15.5 17.0321 15.5ZM19.0314 3C18.2036 3 17.5319 3.83984 17.5319 4.875C17.5319 5.15234 17.5819 5.41016 17.6694 5.64844L15.4076 7.34375C14.9264 7.70312 14.3048 7.5 14.0267 6.89062L11.4806 1.32031C11.8149 0.976562 12.0336 0.460938 12.0336 -0.125C12.0336 -1.16016 11.3619 -2 10.534 -2C9.70617 -2 9.0345 -1.16016 9.0345 -0.125C9.0345 0.460938 9.25319 0.976562 9.58746 1.32031L7.04137 6.89062C6.76333 7.5 6.13852 7.70312 5.66054 7.34375L3.40186 5.64844C3.48621 5.41406 3.53931 5.15234 3.53931 4.875C3.53931 3.83984 2.86764 3 2.03977 3C1.2119 3 0.537109 3.83984 0.537109 4.875C0.537109 5.91016 1.20878 6.75 2.03665 6.75C2.11787 6.75 2.1991 6.73438 2.2772 6.71875L4.53588 14.25H16.5322L18.7909 6.71875C18.869 6.73438 18.9502 6.75 19.0314 6.75C19.8593 6.75 20.531 5.91016 20.531 4.875C20.531 3.83984 19.8593 3 19.0314 3Z" fill="#FAF8FB"/>
</svg>
