<svg width="18" height="18" viewBox="0 0 18 18" fill="none" xmlns="http://www.w3.org/2000/svg">
	<path
		d="M7.1882 18C7.10443 18.0001 7.02166 17.9782 6.9457 17.9358C6.86974 17.8934 6.80244 17.8315 6.74853 17.7546C6.69462 17.6776 6.65541 17.5874 6.63365 17.4904C6.61189 17.3933 6.60811 17.2917 6.62257 17.1927V17.1886L7.50102 11.4004H4.10005C4.00565 11.4004 3.91318 11.3684 3.83334 11.3079C3.75349 11.2475 3.68954 11.1612 3.64887 11.0589C3.60821 10.9567 3.59249 10.8428 3.60353 10.7303C3.61458 10.6178 3.65194 10.5113 3.7113 10.4233L10.5604 0.263707C10.6384 0.144962 10.7466 0.0601236 10.8686 0.0221657C10.9905 -0.0157922 11.1195 -0.00478027 11.2357 0.0535176C11.3519 0.111815 11.4491 0.21419 11.5122 0.344987C11.5754 0.475784 11.6011 0.627803 11.5854 0.777797C11.5854 0.789047 11.5829 0.799921 11.5814 0.81117L10.6998 6.60078H14.1001C14.1945 6.60079 14.287 6.63287 14.3669 6.6933C14.4467 6.75373 14.5107 6.84005 14.5513 6.94228C14.592 7.0445 14.6077 7.15845 14.5967 7.27094C14.5856 7.38343 14.5483 7.48988 14.4889 7.57796L7.63883 17.7375C7.58501 17.8191 7.51654 17.8851 7.43852 17.9305C7.36049 17.976 7.27493 17.9997 7.1882 18Z"
		fill="#F9B15C"
	/>
</svg>