<svg width="18" height="18" fill="none" xmlns="http://www.w3.org/2000/svg"><path d="M7.188 18a.495.495 0 0 1-.242-.064.6.6 0 0 1-.197-.181.745.745 0 0 1-.115-.265.823.823 0 0 1-.011-.297v-.004L7.5 11.4H4.1a.44.44 0 0 1-.267-.092.578.578 0 0 1-.184-.25.707.707 0 0 1 .062-.635l6.85-10.16a.58.58 0 0 1 .308-.24.487.487 0 0 1 .367.03.628.628 0 0 1 .276.292c.063.13.09.283.073.433 0 .011-.002.022-.004.033l-.881 5.79h3.4c.095 0 .187.032.267.092.08.06.144.147.184.25a.707.707 0 0 1-.062.635l-6.85 10.16a.61.61 0 0 1-.2.192.499.499 0 0 1-.25.07Z" fill="#F9B15C"/></svg>