<svg width="25" height="24" viewBox="0 0 25 24" fill="none" xmlns="http://www.w3.org/2000/svg">
	<path
		d="M5.40742 23.6001C6.29614 23.6624 6.74315 22.5894 6.11318 21.9595L2.54036 18.3867C1.91039 17.7567 0.842235 18.2037 0.910408 19.092C0.950262 19.6112 1.00868 20.1123 1.09251 20.5944C1.28696 21.787 1.4814 22.4999 1.75362 22.7462C1.99992 23.0184 2.69992 23.2129 3.87955 23.4203C4.36645 23.5059 4.87544 23.5628 5.40742 23.6001ZM16.3298 8.55763C16.7204 8.94815 16.7204 9.58132 16.3298 9.97184L10.4718 15.8298C10.0813 16.2204 9.44815 16.2204 9.05763 15.8298L8.66999 15.4422C8.27946 15.0517 8.27946 14.4185 8.66999 14.028L14.528 8.16999C14.9185 7.77946 15.5517 7.77946 15.9422 8.16999L16.3298 8.55763ZM1.30745 12.8861C1.24234 13.207 1.34725 13.538 1.57881 13.7696L10.7303 22.921C10.9618 23.1526 11.2928 23.2575 11.6138 23.1923C14.9757 22.5089 17.6569 21.1676 19.6684 19.1684C21.6676 17.1569 23.0089 14.4757 23.6923 11.1138C23.7575 10.7928 23.6526 10.4618 23.421 10.2303L14.2696 1.07881C14.038 0.847255 13.707 0.742318 13.3861 0.807549C10.0241 1.49094 7.34292 2.83222 5.3314 4.8314C3.31986 6.83059 1.98973 9.52294 1.30745 12.8861ZM19.5919 0.413394C18.7036 0.345542 18.2567 1.41039 18.8867 2.04036L22.4595 5.61318C23.0894 6.24315 24.1572 5.79627 24.0922 4.90774C24.0542 4.3885 23.9989 3.88746 23.9203 3.40547C23.7129 2.21288 23.5184 1.49992 23.2462 1.25362C22.9999 0.9814 22.2999 0.786956 21.1203 0.592511C20.6332 0.512227 20.1241 0.454042 19.5919 0.413394Z"
		fill="url(#paint0_linear_177_1587)"
	/>
	<defs>
		<linearGradient
			id="paint0_linear_177_1587"
			x1="8.12492"
			y1="7.62492"
			x2="21.2499"
			y2="18.5624"
			gradientUnits="userSpaceOnUse"
		>
			<stop stop-color="white" />
			<stop offset="1" stop-color="#DBE9FF" />
		</linearGradient>
	</defs>
</svg>