<svg width="25" height="24" fill="none" xmlns="http://www.w3.org/2000/svg"><path d="M5.407 23.6c.89.062 1.336-1.01.706-1.64L2.54 18.386c-.63-.63-1.698-.183-1.63.705.04.52.099 1.02.183 1.502.194 1.193.388 1.906.66 2.152.247.272.947.467 2.127.674.486.086.995.143 1.527.18ZM16.33 8.558a1 1 0 0 1 0 1.414l-5.858 5.858a1 1 0 0 1-1.414 0l-.388-.388a1 1 0 0 1 0-1.414l5.858-5.858a1 1 0 0 1 1.414 0l.388.388ZM1.307 12.886a.978.978 0 0 0 .272.884l9.151 9.151a.977.977 0 0 0 .884.271c3.362-.683 6.043-2.024 8.054-4.024 2-2.011 3.34-4.692 4.024-8.054a.977.977 0 0 0-.271-.884L14.27 1.08a.977.977 0 0 0-.884-.271c-3.362.683-6.043 2.024-8.055 4.023-2.011 2-3.341 4.692-4.024 8.055ZM19.592.413c-.888-.067-1.335.997-.705 1.627l3.572 3.573c.63.63 1.698.183 1.633-.705-.038-.52-.093-1.02-.172-1.503-.207-1.192-.402-1.905-.674-2.151C23 .98 22.3.787 21.12.593c-.487-.08-.996-.139-1.528-.18Z" fill="url(#a)"/><defs><linearGradient id="a" x1="8.125" y1="7.625" x2="21.25" y2="18.562" gradientUnits="userSpaceOnUse"><stop stop-color="#fff"/><stop offset="1" stop-color="#DBE9FF"/></linearGradient></defs></svg>