<svg width="29" height="25" fill="none" xmlns="http://www.w3.org/2000/svg"><path d="M2.55 22.75c0 .968.782 1.75 1.75 1.75h8.75v-8.75H2.55v7Zm14 1.75h8.75c.968 0 1.75-.782 1.75-1.75v-7h-10.5v8.75ZM27.05 7h-2.303a4.76 4.76 0 0 0 .553-2.188A4.82 4.82 0 0 0 20.487 0c-2.275 0-3.746 1.165-5.632 3.735C12.967 1.165 11.496 0 9.221 0a4.82 4.82 0 0 0-4.813 4.813c0 .792.208 1.525.553 2.187H2.55C1.582 7 .8 7.782.8 8.75v4.375c0 .481.394.875.875.875h26.25a.878.878 0 0 0 .875-.875V8.75c0-.968-.782-1.75-1.75-1.75ZM9.216 7a2.187 2.187 0 1 1 0-4.375c1.089 0 1.892.18 4.709 4.375H9.216Zm11.271 0H15.78c2.81-4.184 3.593-4.375 4.708-4.375a2.187 2.187 0 1 1 0 4.375Z" fill="#621FBE"/></svg>