<svg width="29" height="25" viewBox="0 0 29 25" fill="none" xmlns="http://www.w3.org/2000/svg">
	<path d="M2.5498 22.75C2.5498 23.718 3.33184 24.5 4.2998 24.5H13.0498V15.75H2.5498V22.75ZM16.5498 24.5H25.2998C26.2678 24.5 27.0498 23.718 27.0498 22.75V15.75H16.5498V24.5ZM27.0498 7H24.7475C25.0865 6.33828 25.2998 5.60547 25.2998 4.8125C25.2998 2.16016 23.1396 0 20.4873 0C18.2123 0 16.7412 1.16484 14.8545 3.73516C12.9678 1.16484 11.4967 0 9.22168 0C6.56934 0 4.40918 2.16016 4.40918 4.8125C4.40918 5.60547 4.61699 6.33828 4.96152 7H2.5498C1.58184 7 0.799805 7.78203 0.799805 8.75V13.125C0.799805 13.6062 1.19355 14 1.6748 14H27.9248C28.4061 14 28.7998 13.6062 28.7998 13.125V8.75C28.7998 7.78203 28.0178 7 27.0498 7ZM9.21621 7C8.00762 7 7.02871 6.02109 7.02871 4.8125C7.02871 3.60391 8.00762 2.625 9.21621 2.625C10.3045 2.625 11.1084 2.80547 13.9248 7H9.21621ZM20.4873 7H15.7787C18.5896 2.81641 19.3717 2.625 20.4873 2.625C21.6959 2.625 22.6748 3.60391 22.6748 4.8125C22.6748 6.02109 21.6959 7 20.4873 7Z" fill="#621FBE"/>
</svg>
