<svg width="24" height="28" viewBox="0 0 24 28" fill="none" xmlns="http://www.w3.org/2000/svg">
	<path d="M12 14C15.7875 14 18.8571 10.8664 18.8571 7C18.8571 3.13359 15.7875 0 12 0C8.2125 0 5.14286 3.13359 5.14286 7C5.14286 10.8664 8.2125 14 12 14ZM16.8 15.75H15.9054C14.7161 16.3078 13.3929 16.625 12 16.625C10.6071 16.625 9.28929 16.3078 8.09464 15.75H7.2C3.225 15.75 0 19.0422 0 23.1V25.375C0 26.8242 1.15179 28 2.57143 28H21.4286C22.8482 28 24 26.8242 24 25.375V23.1C24 19.0422 20.775 15.75 16.8 15.75Z" fill="#621FBE"/>
</svg>
