<svg width="21" height="18" fill="none" xmlns="http://www.w3.org/2000/svg"><g clip-path="url(#a)"><path d="M20.2 9c0 .989-.284 1.956-.816 2.778a4.876 4.876 0 0 1-2.171 1.841 4.696 4.696 0 0 1-2.797.285 4.794 4.794 0 0 1-2.478-1.369l-.04-.044L7.072 6.86a2.874 2.874 0 0 0-1.488-.805 2.818 2.818 0 0 0-1.67.18A2.927 2.927 0 0 0 2.619 7.34 3.07 3.07 0 0 0 2.133 9c0 .59.169 1.169.485 1.66.317.493.767.877 1.295 1.106a2.819 2.819 0 0 0 1.67.18 2.875 2.875 0 0 0 1.488-.805l.248-.29a.973.973 0 0 1 .666-.337.939.939 0 0 1 .702.25 1 1 0 0 1 .325.688 1.032 1.032 0 0 1-.241.724l-.27.315-.04.044a4.793 4.793 0 0 1-2.478 1.368 4.696 4.696 0 0 1-2.796-.284 4.877 4.877 0 0 1-2.172-1.842A5.118 5.118 0 0 1 .2 9c0-.989.284-1.955.815-2.777A4.877 4.877 0 0 1 3.187 4.38a4.696 4.696 0 0 1 2.796-.284 4.794 4.794 0 0 1 2.478 1.368l.04.044 4.828 5.632c.408.414.925.694 1.487.805a2.819 2.819 0 0 0 1.67-.18 2.928 2.928 0 0 0 1.295-1.105A3.07 3.07 0 0 0 18.267 9a3.07 3.07 0 0 0-.486-1.66 2.927 2.927 0 0 0-1.294-1.106 2.818 2.818 0 0 0-1.67-.18 2.874 2.874 0 0 0-1.488.805l-.249.29a.971.971 0 0 1-.666.337.94.94 0 0 1-.701-.25 1 1 0 0 1-.326-.688 1.033 1.033 0 0 1 .242-.724l.27-.315.04-.044a4.794 4.794 0 0 1 2.477-1.369 4.696 4.696 0 0 1 2.797.285 4.877 4.877 0 0 1 2.171 1.841A5.12 5.12 0 0 1 20.2 9Z" fill="#621FBE"/></g><defs><clipPath id="a"><path fill="#fff" transform="translate(.2)" d="M0 0h20v18H0z"/></clipPath></defs></svg>