<svg width="21" height="18" viewBox="0 0 21 18" fill="none" xmlns="http://www.w3.org/2000/svg">
	<g clip-path="url(#clip0_1_2446)">
		<path
			d="M20.2 9C20.2001 9.98887 19.9163 10.9556 19.3845 11.7778C18.8528 12.6001 18.0969 13.241 17.2126 13.6194C16.3282 13.9978 15.3551 14.0969 14.4162 13.9039C13.4774 13.7109 12.615 13.2347 11.9382 12.5354L11.8987 12.4912L7.07056 6.85942C6.66237 6.44547 6.14492 6.16527 5.58315 6.05401C5.02138 5.94275 4.44031 6.00538 3.91286 6.23403C3.38541 6.46268 2.93509 6.84717 2.6184 7.33926C2.30171 7.83134 2.13277 8.40909 2.13277 9C2.13277 9.59091 2.30171 10.1687 2.6184 10.6607C2.93509 11.1528 3.38541 11.5373 3.91286 11.766C4.44031 11.9946 5.02138 12.0572 5.58315 11.946C6.14492 11.8347 6.66237 11.5545 7.07056 11.1406L7.31899 10.8506C7.40325 10.7521 7.50546 10.6718 7.61979 10.6141C7.73411 10.5564 7.85831 10.5226 7.9853 10.5145C8.11229 10.5064 8.23958 10.5242 8.35989 10.567C8.48021 10.6097 8.5912 10.6765 8.68653 10.7635C8.78186 10.8506 8.85966 10.9562 8.91549 11.0743C8.97131 11.1924 9.00408 11.3207 9.0119 11.4519C9.01973 11.5831 9.00247 11.7146 8.9611 11.8389C8.91974 11.9631 8.85508 12.0778 8.77082 12.1763L8.50062 12.4912L8.46109 12.5354C7.78425 13.2345 6.92195 13.7106 5.98321 13.9034C5.04448 14.0962 4.07147 13.9972 3.18723 13.6188C2.30298 13.2403 1.54721 12.5996 1.01549 11.7774C0.483758 10.9553 0.199951 9.98875 0.199951 9C0.199951 8.01125 0.483758 7.0447 1.01549 6.22257C1.54721 5.40044 2.30298 4.75966 3.18723 4.38124C4.07147 4.00282 5.04448 3.90377 5.98321 4.0966C6.92195 4.28944 7.78425 4.7655 8.46109 5.46459L8.50062 5.50875L13.3288 11.1406C13.7369 11.5545 14.2544 11.8347 14.8162 11.946C15.3779 12.0572 15.959 11.9946 16.4865 11.766C17.0139 11.5373 17.4642 11.1528 17.7809 10.6607C18.0976 10.1687 18.2666 9.59091 18.2666 9C18.2666 8.40909 18.0976 7.83134 17.7809 7.33926C17.4642 6.84717 17.0139 6.46268 16.4865 6.23403C15.959 6.00538 15.3779 5.94275 14.8162 6.05401C14.2544 6.16527 13.7369 6.44547 13.3288 6.85942L13.0803 7.14939C12.9961 7.24787 12.8939 7.32824 12.7795 7.38591C12.6652 7.44358 12.541 7.47743 12.414 7.48552C12.287 7.4936 12.1597 7.47577 12.0394 7.43304C11.9191 7.3903 11.8081 7.32351 11.7128 7.23646C11.6175 7.14942 11.5397 7.04383 11.4838 6.92572C11.428 6.80762 11.3952 6.67931 11.3874 6.54812C11.3796 6.41694 11.3969 6.28544 11.4382 6.16115C11.4796 6.03685 11.5442 5.92219 11.6285 5.82371L11.8987 5.50875L11.9382 5.46459C12.615 4.76529 13.4774 4.28905 14.4162 4.0961C15.3551 3.90314 16.3282 4.00215 17.2126 4.38059C18.0969 4.75903 18.8528 5.39991 19.3845 6.22217C19.9163 7.04443 20.2001 8.01113 20.2 9Z"
			fill="#621FBE"
		/>
	</g>
	<defs>
		<clipPath id="clip0_1_2446">
			<rect width="20" height="18" fill="white" transform="translate(0.199951)" />
		</clipPath>
	</defs>
</svg>