<svg width="19" height="18" viewBox="0 0 19 18" fill="none" xmlns="http://www.w3.org/2000/svg">
	<path
		d="M12.5 9C12.5 10.6569 11.1569 12 9.5 12C7.84311 12 6.5 10.6569 6.5 9C6.5 7.34311 7.84311 6 9.5 6C11.1569 6 12.5 7.34311 12.5 9Z"
		fill="#621fbe"
	/>
	<path
		d="M18.058 2.52542C17.8821 2.04875 17.6015 1.6173 17.2369 1.26315C16.8827 0.898498 16.4515 0.617863 15.9746 0.441956C15.5878 0.29172 15.0067 0.112896 13.9363 0.0641784C12.7785 0.0113771 12.4313 0 9.50015 0C6.56865 0 6.2215 0.0110854 5.06396 0.0638867C3.99364 0.112896 3.41224 0.29172 3.02571 0.441956C2.54875 0.617863 2.1173 0.898498 1.76344 1.26315C1.39879 1.6173 1.11815 2.04846 0.941956 2.52542C0.79172 2.91224 0.612896 3.49364 0.564178 4.56396C0.511377 5.7215 0.5 6.06865 0.5 9.00015C0.5 11.9313 0.511377 12.2785 0.564178 13.4363C0.612896 14.5067 0.79172 15.0878 0.941956 15.4746C1.11815 15.9515 1.3985 16.3827 1.76315 16.7369C2.1173 17.1015 2.54846 17.3821 3.02542 17.558C3.41224 17.7086 3.99364 17.8874 5.06396 17.9361C6.2215 17.9889 6.56836 18 9.49985 18C12.4316 18 12.7788 17.9889 13.936 17.9361C15.0064 17.8874 15.5878 17.7086 15.9746 17.558C16.932 17.1887 17.6887 16.432 18.058 15.4746C18.2083 15.0878 18.3871 14.5067 18.4361 13.4363C18.4889 12.2785 18.5 11.9313 18.5 9.00015C18.5 6.06865 18.4889 5.7215 18.4361 4.56396C18.3874 3.49364 18.2086 2.91224 18.058 2.52542ZM9.50015 14.6371C6.38662 14.6371 3.86266 12.1134 3.86266 8.99985C3.86266 5.88633 6.38662 3.36266 9.50015 3.36266C12.6134 3.36266 15.1373 5.88633 15.1373 8.99985C15.1373 12.1134 12.6134 14.6371 9.50015 14.6371ZM15.3602 4.45719C14.6327 4.45719 14.0428 3.86733 14.0428 3.13978C14.0428 2.41223 14.6327 1.82237 15.3602 1.82237C16.0878 1.82237 16.6776 2.41223 16.6776 3.13978C16.6773 3.86733 16.0878 4.45719 15.3602 4.45719Z"
		fill="#621fbe"
	/>
</svg>