<svg width="19" height="18" fill="none" xmlns="http://www.w3.org/2000/svg"><path d="M12.5 9a3 3 0 1 1-6 0 3 3 0 0 1 6 0Z" fill="#621fbe"/><path d="M18.058 2.525a3.402 3.402 0 0 0-.821-1.262 3.4 3.4 0 0 0-1.262-.821c-.387-.15-.968-.33-2.039-.378C12.778.011 12.431 0 9.5 0S6.221.011 5.064.064c-1.07.049-1.652.228-2.038.378a3.397 3.397 0 0 0-1.263.821 3.403 3.403 0 0 0-.821 1.262c-.15.387-.33.969-.378 2.039C.511 5.721.5 6.069.5 9s.011 3.278.064 4.436c.049 1.07.228 1.652.378 2.039.176.476.457.908.821 1.262a3.4 3.4 0 0 0 1.262.821c.387.15.969.33 2.039.378C6.221 17.99 6.568 18 9.5 18s3.279-.011 4.436-.064c1.07-.049 1.652-.227 2.039-.378a3.635 3.635 0 0 0 2.083-2.083c.15-.387.33-.968.378-2.039.053-1.158.064-1.505.064-4.436s-.011-3.279-.064-4.436c-.049-1.07-.227-1.652-.378-2.039ZM9.5 14.637a5.637 5.637 0 1 1 0-11.274 5.637 5.637 0 0 1 0 11.274Zm5.86-10.18a1.317 1.317 0 1 1 0-2.635 1.317 1.317 0 0 1 0 2.635Z" fill="#621fbe"/></svg>