<svg width="30" height="21" fill="none" xmlns="http://www.w3.org/2000/svg"><g clip-path="url(#a)"><path d="M28 20.813H2a1.97 1.97 0 0 1-1.414-.605A2.096 2.096 0 0 1 0 18.75V2.25C0 1.703.21 1.178.586.792A1.97 1.97 0 0 1 2 .187h26c.53 0 1.04.218 1.414.605.375.386.586.911.586 1.458v16.5a2.09 2.09 0 0 1-.586 1.458 1.97 1.97 0 0 1-1.414.605Zm-4.263-3.68h-.012a.802.802 0 0 0-.607.275 1.023 1.023 0 0 0-.255.68c0 .25.09.492.255.677a.812.812 0 0 0 .607.275h.012a.62.62 0 0 0 .312-.06.645.645 0 0 0 .246-.207v-.002.23h.378v-2.552h-.377v.953a.664.664 0 0 0-.526-.27l-.035.002h.002Zm-3.542 0h-.02a.834.834 0 0 0-.612.27 1.041 1.041 0 0 0-.255.685c0 .253.091.497.256.685a.837.837 0 0 0 .613.268h.02l.036.001a.609.609 0 0 0 .508-.268l.002-.002v.229h.391v-1.813h-.39v.215a.63.63 0 0 0-.548-.269Zm-1.707 0h-.035c-.245 0-.48.1-.654.279a.97.97 0 0 0-.27.675.97.97 0 0 0 .27.674.91.91 0 0 0 .654.28l.037-.001h-.002.035a.92.92 0 0 0 .593-.216l-.002.002-.182-.323a.717.717 0 0 1-.422.162h-.002a.525.525 0 0 1-.416-.162.648.648 0 0 1 0-.832.509.509 0 0 1 .367-.161h.018-.001c.166 0 .326.057.457.162l-.001-.001.182-.323a.952.952 0 0 0-.605-.215h-.02Zm-3.4 0h-.02a.807.807 0 0 0-.605.27.967.967 0 0 0-.247.689v-.002l-.001.04c0 .253.098.483.255.652a.86.86 0 0 0 .617.262l.029-.001h-.002.034c.261 0 .5-.096.684-.257l-.001.002-.183-.295c-.14.128-.32.2-.506.201a.487.487 0 0 1-.353-.11.515.515 0 0 1-.181-.33v-.003h1.314v-.161a.996.996 0 0 0-.235-.693v.001a.78.78 0 0 0-.58-.265h-.018Zm-2.564.055v.362h.364v.82c0 .445.206.671.612.671h.014a.814.814 0 0 0 .455-.139l-.003.002-.105-.336a.692.692 0 0 1-.338.094c-.165 0-.25-.098-.25-.294v-.817h.625v-.362h-.625v-.55h-.39v.55l-.359-.001Zm-1.639 1.315-.17.309c.207.143.46.229.732.229h.026-.002l.055.001c.199 0 .385-.06.54-.166l-.004.003a.501.501 0 0 0 .216-.419v-.012c0-.302-.206-.48-.612-.536l-.182-.027c-.2-.036-.3-.098-.3-.188 0-.134.11-.2.326-.2h.004c.204 0 .396.054.562.15l-.006-.003.157-.322a1.275 1.275 0 0 0-.72-.188h.003l-.045-.001a.816.816 0 0 0-.49.164l.002-.002a.518.518 0 0 0-.195.413v.018-.001c0 .294.206.47.611.523l.17.028c.207.036.312.099.312.188 0 .151-.133.228-.404.228h-.008a.979.979 0 0 1-.581-.19l.003.002v-.002ZM9.4 17.133h-.02a.803.803 0 0 0-.604.269 1.064 1.064 0 0 0 0 1.371.828.828 0 0 0 .604.268h.022a.639.639 0 0 0 .311-.062.663.663 0 0 0 .248-.205v-.002.229h.378v-1.813h-.377v.215a.709.709 0 0 0-.549-.27H9.4Zm12.24.054V19h.377v-1.02c0-.311.127-.47.378-.47h.008c.083 0 .161.02.23.056l-.003-.002.117-.376a.585.585 0 0 0-.249-.054h-.026.001-.014a.492.492 0 0 0-.255.072.512.512 0 0 0-.185.195l-.002.002v-.214l-.377-.002Zm-5.325 0V19h.39v-1.02c0-.311.128-.47.378-.47h.009c.082 0 .16.02.23.056l-.004-.002.118-.376a.633.633 0 0 0-.259-.054h-.029a.49.49 0 0 0-.255.07.51.51 0 0 0-.185.196l-.001.003v-.215l-.392-.001Zm-8.907.322c.26 0 .391.163.391.481v1.008h.391v-1.17a.712.712 0 0 0-.19-.486.729.729 0 0 0-.507-.207h-.007a.655.655 0 0 0-.348.074.68.68 0 0 0-.262.246l-.002.003a.638.638 0 0 0-.249-.248.614.614 0 0 0-.338-.075h.001-.007a.597.597 0 0 0-.5.267l-.001.002v-.215h-.39v1.814h.392v-1.01c0-.32.145-.48.43-.48.259 0 .39.162.39.48v1.008h.378v-1.007c0-.322.145-.482.43-.482l-.002-.003Zm11.68-15.603h-.027a6.341 6.341 0 0 0-3.654 1.157l.022-.015a7.276 7.276 0 0 1 2.298 3.514l.014.052c.197.64.309 1.376.309 2.14a7.53 7.53 0 0 1-.316 2.169l.013-.052a7.14 7.14 0 0 1-2.304 3.54l-.014.01a6.388 6.388 0 0 0 3.654 1.142c.934 0 1.821-.2 2.625-.562l-.042.018a6.682 6.682 0 0 0 3.506-3.588l.015-.044a6.808 6.808 0 0 0 .528-2.652c0-.958-.194-1.87-.544-2.695l.017.043a6.672 6.672 0 0 0-3.486-3.614l-.043-.016a6.22 6.22 0 0 0-2.562-.544h-.01l.001-.003Zm-8.176 0h-.01a6.308 6.308 0 0 0-2.604.56l.042-.017a6.664 6.664 0 0 0-3.513 3.588l-.016.044a6.808 6.808 0 0 0-.528 2.652c0 .958.194 1.87.544 2.695l-.016-.043a6.686 6.686 0 0 0 3.479 3.616l.043.016c.761.344 1.65.544 2.582.544 1.31.002 2.591-.4 3.678-1.157l-.024.016a7.197 7.197 0 0 1-2.305-3.514l-.012-.051a7.403 7.403 0 0 1-.301-2.113 7.534 7.534 0 0 1 .683-3.146 7.314 7.314 0 0 1 1.923-2.54l.013-.01a6.313 6.313 0 0 0-3.63-1.141h-.03l.002.001ZM15 3.37a6.703 6.703 0 0 0-2.227 3.301l-.013.048c-.2.655-.302 1.34-.3 2.027 0 .717.107 1.407.307 2.056l-.013-.048a6.645 6.645 0 0 0 2.231 3.333l.015.011a6.634 6.634 0 0 0 2.234-3.297l.013-.047a7.016 7.016 0 0 0-.018-4.085l.012.049a6.722 6.722 0 0 0-2.225-3.338L15 3.37Zm8.788 15.294h-.014a.488.488 0 0 1-.369-.168.63.63 0 0 1 0-.82.533.533 0 0 1 .384-.168.519.519 0 0 1 .384.169.64.64 0 0 1 0 .826v-.001a.51.51 0 0 1-.37.162h-.015Zm-3.554 0h-.018a.48.48 0 0 1-.36-.16.67.67 0 0 1 .002-.834h-.001a.49.49 0 0 1 .359-.16h.033a.49.49 0 0 1 .369.167c.093.104.15.243.15.396v.039a.605.605 0 0 1-.144.395l.001-.001a.503.503 0 0 1-.363.158h-.029.002Zm-10.782 0h-.024a.489.489 0 0 1-.366-.16.67.67 0 0 1 .001-.834.506.506 0 0 1 .392-.16h.018a.463.463 0 0 1 .359.167v.001a.663.663 0 0 1 0 .826.492.492 0 0 1-.36.16h-.019.001-.002Zm6.081-.739h-.91a.478.478 0 0 1 .148-.302.45.45 0 0 1 .613-.001.479.479 0 0 1 .15.301v.002Z" fill="#621FBE"/></g><defs><clipPath id="a"><path fill="#fff" transform="translate(0 .188)" d="M0 0h30v20.625H0z"/></clipPath></defs></svg>