<svg width="30" height="30" fill="none" xmlns="http://www.w3.org/2000/svg"><path d="m19.312 20.65-3.763-3.762a.552.552 0 0 0-.387-.162.552.552 0 0 0-.388.162L11 20.663c-.425.425-1.087 1.113-3.3 1.113l4.638 4.625a3.75 3.75 0 0 0 5.3 0l4.65-4.638c-1.138 0-2.088-.225-2.975-1.112ZM10.999 9.339l3.775 3.775c.1.1.25.163.388.163a.571.571 0 0 0 .387-.163l3.738-3.737c.887-.925 1.9-1.138 3.037-1.138l-4.65-4.637a3.75 3.75 0 0 0-5.3 0L7.737 8.226c2.2 0 2.875.725 3.262 1.112Z" fill="#621FBE"/><path d="m26.388 12.313-2.812-2.825H22c-.675 0-1.35.275-1.813.762L16.438 14c-.35.35-.812.525-1.275.525A1.875 1.875 0 0 1 13.888 14l-3.775-3.787a2.563 2.563 0 0 0-1.812-.75H6.463l-2.862 2.875a3.75 3.75 0 0 0 0 5.3l2.862 2.875h1.85a2.61 2.61 0 0 0 1.813-.75l3.775-3.775c.35-.35.812-.525 1.275-.525.462 0 .925.175 1.275.525l3.762 3.762c.475.475 1.125.75 1.813.75H23.6l2.812-2.825a3.802 3.802 0 0 0-.025-5.362Z" fill="#621FBE"/></svg>