<svg width="29" height="26" fill="none" xmlns="http://www.w3.org/2000/svg"><path fill-rule="evenodd" clip-rule="evenodd" d="M.6 9.278C.6 4.153 5.591 0 11.75 0c6.158 0 11.149 4.153 11.149 9.278 0 1.829-.635 3.533-1.732 4.97a9.551 9.551 0 0 0-5.503-1.74c-3.69 0-6.903 2.1-8.56 5.195l-.032-.012c-1.071.874-3.236 2.293-6.123 2.293a.341.341 0 0 1-.318-.214.361.361 0 0 1 .065-.388c.022-.023 1.842-2.025 2.387-4.274C1.533 13.516.6 11.491.6 9.278Z" fill="#621FBE"/><path d="m11.829 23.569 5.71-6.067 4.282 4.282 4.282-4.282" stroke="#621FBE" stroke-width="2"/><path d="M13.612 23.57a1.784 1.784 0 1 1-3.568 0 1.784 1.784 0 0 1 3.568 0Z" fill="#621FBE"/><circle cx="17.537" cy="17.858" r="1.784" fill="#621FBE"/><circle cx="21.82" cy="21.427" r="1.784" fill="#621FBE"/><circle cx="26.816" cy="17.146" r="1.784" fill="#621FBE"/></svg>