<svg width="29" height="26" viewBox="0 0 29 26" fill="none" xmlns="http://www.w3.org/2000/svg">
	<path
		fill-rule="evenodd"
		clip-rule="evenodd"
		d="M0.600098 9.27824C0.600098 4.1529 5.59122 0 11.7496 0C17.9079 0 22.899 4.1529 22.899 9.27824C22.899 11.1066 22.2638 12.8113 21.1671 14.2478C19.6007 13.15 17.7058 12.5078 15.6645 12.5078C11.9736 12.5078 8.76141 14.6071 7.10407 17.7034C7.09337 17.6993 7.08269 17.6952 7.07201 17.6911C6.00062 18.5654 3.83605 19.9839 0.948518 19.9839C0.80915 19.9839 0.687203 19.9036 0.630584 19.7698C0.573966 19.636 0.600098 19.4843 0.695913 19.3817C0.71769 19.3594 2.53819 17.3566 3.08259 15.1084C1.53212 13.5159 0.600098 11.4907 0.600098 9.27824Z"
		fill="#621FBE"
	/>
	<path
		d="M11.8286 23.5685L17.5383 17.502L21.8206 21.7842L26.1028 17.502"
		stroke="#621FBE"
		stroke-width="2"
	/>
	<path
		d="M13.612 23.5694C13.612 24.5549 12.8132 25.3537 11.8277 25.3537C10.8423 25.3537 10.0435 24.5549 10.0435 23.5694C10.0435 22.584 10.8423 21.7852 11.8277 21.7852C12.8132 21.7852 13.612 22.584 13.612 23.5694Z"
		fill="#621FBE"
	/>
	<circle cx="17.5367" cy="17.8585" r="1.78428" fill="#621FBE" />
	<circle cx="21.8199" cy="21.4271" r="1.78428" fill="#621FBE" />
	<circle cx="26.816" cy="17.1456" r="1.78428" fill="#621FBE" />
</svg>