<svg width="16" height="16" fill="none" xmlns="http://www.w3.org/2000/svg"><g clip-path="url(#a)"><path d="M8 8c1.578 0 2.857-1.343 2.857-3S9.578 2 8 2C6.422 2 5.143 3.343 5.143 5S6.422 8 8 8Zm2 .75h-.373A3.735 3.735 0 0 1 8 9.125a3.74 3.74 0 0 1-1.627-.375H6c-1.656 0-3 1.41-3 3.15v.975C3 13.496 3.48 14 4.071 14h7.858C12.52 14 13 13.496 13 12.875V11.9c0-1.74-1.344-3.15-3-3.15Z" fill="#faf8fb"/></g><defs><clipPath id="a"><path fill="#fff" transform="translate(3 2)" d="M0 0h10v12H0z"/></clipPath></defs></svg>