<svg width="16" height="16" viewBox="0 0 16 16" fill="none" xmlns="http://www.w3.org/2000/svg">
	<g clip-path="url(#clip0_1_1833)">
		<path
			d="M8 8C9.57812 8 10.8571 6.65703 10.8571 5C10.8571 3.34297 9.57812 2 8 2C6.42188 2 5.14286 3.34297 5.14286 5C5.14286 6.65703 6.42188 8 8 8ZM10 8.75H9.62723C9.1317 8.98906 8.58036 9.125 8 9.125C7.41964 9.125 6.87054 8.98906 6.37277 8.75H6C4.34375 8.75 3 10.1609 3 11.9V12.875C3 13.4961 3.47991 14 4.07143 14H11.9286C12.5201 14 13 13.4961 13 12.875V11.9C13 10.1609 11.6562 8.75 10 8.75Z"
			fill="#faf8fb"
		/>
	</g>
	<defs>
		<clipPath id="clip0_1_1833">
			<rect width="10" height="12" fill="white" transform="translate(3 2)" />
		</clipPath>
	</defs>
</svg>