<svg width="25" height="24" fill="none" xmlns="http://www.w3.org/2000/svg"><path d="M15.377.426h.001c1.954-.398 3.797.53 5.022 1.902l2.5 2.803c1.092 1.223 1.577 2.943 1.065 4.569-3.077 9.78-10.252 13.233-14.859 13.927-1.32.198-2.565-.331-3.482-1.145L2.979 20.14c-1.77-1.568-2.659-4.047-1.836-6.375C4.227 5.035 10.554 1.407 15.375.426h.002Zm3.678 5.122a.729.729 0 1 0-1.44-.222c-.546 3.535-2.353 6.446-4.446 8.597-2.104 2.161-4.445 3.503-5.971 3.937a.73.73 0 0 0 .4 1.404c1.822-.52 4.375-2.022 6.615-4.324 2.252-2.313 4.24-5.49 4.842-9.392Z" fill="url(#a)"/><defs><linearGradient id="a" x1="8.126" y1="7.626" x2="21.252" y2="18.564" gradientUnits="userSpaceOnUse"><stop stop-color="#fff"/><stop offset="1" stop-color="#DBE9FF"/></linearGradient></defs></svg>