<svg width="25" height="24" fill="none" xmlns="http://www.w3.org/2000/svg"><path d="M5.517 8.11v-.002c-.081-.567-.258-1.242-.47-2.049l-.63-2.422a.075.075 0 0 1 .02-.074A11.703 11.703 0 0 1 6.67 1.892a.95.95 0 0 1 1.05.08l1.408 1.066c.654.494 1.204.91 1.691 1.198l.127.073c.374.21.652.583.652 1.012v2.326c0 .295-.178.555-.41.735l-2.259 1.772a.522.522 0 0 1-.524.088L6.044 9.22c-.29-.125-.463-.417-.485-.73a4.342 4.342 0 0 0-.042-.381Zm-2.3 1.793c-.345.296-.83.627-1.56 1.121-.343.233-.797-.022-.747-.432.182-1.513.66-2.974 1.407-4.3.253-.45.893-.337 1.023.162.226.866.375 1.446.442 1.907.064.439.037.679-.035.873-.07.192-.203.388-.53.67Zm1.467 7.795c.813 0 1.496 0 2.056.066.05.006.1.012.15.02.423.061.87-.068 1.13-.407l.977-1.278c.148-.193.163-.452.094-.685l-.89-2.948c-.079-.266-.242-.51-.497-.62l-2.079-.899c-.41-.177-.882-.05-1.22.243l-.046.038c-.43.37-1 .756-1.678 1.217l-1.228.833a.95.95 0 0 0-.413.963c.199 1.02.534 2.01.997 2.94a.95.95 0 0 0 .859.517h1.788Zm7.587-7.94a.329.329 0 0 1 .203-.073c.07 0 .14.023.205.072l2.258 1.771a.39.39 0 0 1 .13.194.419.419 0 0 1 0 .241l-.886 2.947a.385.385 0 0 1-.127.192.33.33 0 0 1-.208.074h-2.743a.33.33 0 0 1-.208-.076.384.384 0 0 1-.126-.19l-.887-2.947a.42.42 0 0 1 0-.241.387.387 0 0 1 .13-.194l2.259-1.77Zm1.851-5.486c.492-.277 1.052-.681 1.716-1.16L17.372 2a.951.951 0 0 1 1.04-.063c.63.37 1.225.8 1.776 1.282a.952.952 0 0 1 .283.96l-.491 1.88c-.21.806-.387 1.482-.47 2.05-.01.067-.02.133-.026.2-.046.418-.278.808-.664.972l-2.266.962a.534.534 0 0 1-.534-.091L13.762 8.38c-.232-.182-.411-.44-.411-.736V5.35c0-.436.286-.816.67-1.022a6.47 6.47 0 0 0 .101-.055Zm-2.41-1.543h-.002c-.389-.23-.858-.584-1.562-1.117-.429-.325-.304-.988.226-1.086a11.682 11.682 0 0 1 2.128-.192c.726 0 1.437.066 2.127.193.559.103.682.805.221 1.138-.715.516-1.192.86-1.586 1.081-.374.21-.592.261-.778.259-.187-.002-.403-.058-.773-.276h-.001Zm8.955 8.5v.001c.43.368 1.001.756 1.679 1.215l1.203.816a.95.95 0 0 1 .413.962 11.578 11.578 0 0 1-1 2.958.951.951 0 0 1-.858.517h-1.586c-.813 0-1.496 0-2.056.066a4.177 4.177 0 0 0-.218.029c-.405.064-.834-.044-1.099-.358l-1.186-1.408c-.142-.168-.164-.403-.1-.613l.888-2.948c.077-.263.24-.504.492-.612l2.382-1.011c.279-.118.599-.033.817.177a5.15 5.15 0 0 0 .23.209Zm-4.871 8.501v.001c-.235.52-.451 1.183-.708 1.976l-.394 1.213a.952.952 0 0 1-.783.662c-.861.104-1.731.112-2.595.025a.951.951 0 0 1-.8-.663l-.402-1.237c-.257-.793-.473-1.456-.708-1.977a4.296 4.296 0 0 0-.05-.108c-.186-.394-.186-.867.079-1.213l.88-1.15c.182-.238.489-.333.788-.333h2.743c.323 0 .655.09.863.337l1.072 1.27c.242.288.255.699.09 1.036a4.657 4.657 0 0 0-.075.16v.001Zm-7.334 2.563c-.277-.852-.463-1.421-.655-1.841-.18-.403-.33-.584-.488-.7-.155-.115-.363-.201-.783-.25-.446-.052-1.026-.054-1.902-.054-.445 0-.68.512-.364.825a11.694 11.694 0 0 0 3.704 2.483c.296.124.587-.158.488-.463Zm10.204-2.791c.446-.052 1.026-.054 1.902-.054.365 0 .559.421.304.683a11.699 11.699 0 0 1-3.7 2.564c-.26.113-.518-.134-.432-.402.277-.852.463-1.421.655-1.841.18-.403.33-.584.488-.7.155-.115.363-.201.783-.25Zm2.58-11.142h-.001c.068-.46.218-1.04.444-1.906.127-.487.752-.596.998-.158a11.601 11.601 0 0 1 1.406 4.31c.047.397-.39.643-.721.42-.73-.496-1.216-.826-1.56-1.123-.328-.281-.46-.477-.531-.668-.072-.195-.1-.435-.035-.875Z" fill="url(#a)"/><defs><linearGradient id="a" x1="8.125" y1="7.625" x2="21.25" y2="18.563" gradientUnits="userSpaceOnUse"><stop stop-color="#fff"/><stop offset="1" stop-color="#DBE9FF"/></linearGradient></defs></svg>