<svg width="25" height="25" fill="none" xmlns="http://www.w3.org/2000/svg"><path d="M4.174 20.759a11.673 11.673 0 0 0 6.63 3.302c.626.087 1.118-.478 1.086-1.11A10.512 10.512 0 0 1 22.947 11.89c.633.032 1.2-.463 1.11-1.09a11.633 11.633 0 0 0-3.298-6.626A11.636 11.636 0 0 0 14.132.875c-.627-.088-1.121.478-1.089 1.11A10.512 10.512 0 0 1 1.981 13.043c-.631-.032-1.197.46-1.11 1.085.35 2.5 1.503 4.83 3.303 6.63Z" fill="url(#a)"/><path d="M16.468 16.466a8.204 8.204 0 0 0-2.375 6.457.86.86 0 0 0 1.076.761 11.644 11.644 0 0 0 8.516-8.516.86.86 0 0 0-.761-1.076 8.208 8.208 0 0 0-6.456 2.374Zm-8.291-8.29a8.204 8.204 0 0 0 2.374-6.457.86.86 0 0 0-1.076-.761A11.644 11.644 0 0 0 .958 9.473a.86.86 0 0 0 .76 1.076 8.21 8.21 0 0 0 6.459-2.374Z" fill="url(#b)"/><defs><linearGradient id="a" x1="8.079" y1="8.079" x2="21.241" y2="19.048" gradientUnits="userSpaceOnUse"><stop stop-color="#fff"/><stop offset="1" stop-color="#DBE9FF"/></linearGradient><linearGradient id="b" x1="7.988" y1="7.988" x2="20.988" y2="18.821" gradientUnits="userSpaceOnUse"><stop stop-color="#fff"/><stop offset="1" stop-color="#DBE9FF"/></linearGradient></defs></svg>