<svg width="30" height="30" fill="none" xmlns="http://www.w3.org/2000/svg"><g clip-path="url(#a)"><path fill-rule="evenodd" clip-rule="evenodd" d="M15 30C6.715 30 0 23.285 0 15S6.715 0 15 0s15 6.715 15 15-6.715 15-15 15Zm1.802-17.07v-2.217h5.076V7.33H8.058v3.383h5.075v2.217c-4.125.19-7.227 1.007-7.227 1.986 0 .978 3.102 1.795 7.227 1.985v7.108h3.669V16.9c4.118-.189 7.213-1.006 7.213-1.983 0-.978-3.095-1.795-7.213-1.985Zm0 3.367v-.002c-.103.007-.635.04-1.82.04a39.56 39.56 0 0 1-1.849-.04v.002c-3.645-.16-6.365-.795-6.365-1.554 0-.758 2.72-1.393 6.365-1.556v2.479c.239.016.921.057 1.864.057 1.132 0 1.699-.047 1.805-.056v-2.478c3.637.162 6.351.797 6.351 1.554 0 .76-2.714 1.392-6.351 1.554Z" fill="#621FBE"/></g><defs><clipPath id="a"><path fill="#fff" d="M0 0h30v30H0z"/></clipPath></defs></svg>