<svg width="30" height="30" fill="none" xmlns="http://www.w3.org/2000/svg"><g clip-path="url(#a)"><path d="M24.486 13.713s.395 1.938.484 2.344h-1.739l.834-2.266c-.01.016.171-.475.275-.777l.146.699ZM30 5.833v18.333a2.5 2.5 0 0 1-2.5 2.5h-25a2.5 2.5 0 0 1-2.5-2.5V5.832a2.501 2.501 0 0 1 2.5-2.5h25a2.501 2.501 0 0 1 2.5 2.5ZM7.943 18.915l3.292-8.083H9.022l-2.047 5.52-.224-1.119-.73-3.719c-.12-.515-.489-.661-.947-.682h-3.37l-.036.161c.771.19 1.512.49 2.197.89l1.865 7.032h2.213Zm4.918.01 1.312-8.093H12.08l-1.307 8.093h2.088Zm7.286-2.645c.01-.922-.552-1.625-1.755-2.203-.734-.37-1.182-.62-1.182-1 .01-.345.38-.7 1.203-.7a3.587 3.587 0 0 1 1.557.308l.187.088.287-1.75a5.206 5.206 0 0 0-1.875-.344c-2.068 0-3.521 1.104-3.531 2.677-.016 1.161 1.041 1.807 1.833 2.197.807.396 1.084.656 1.084 1.005-.01.542-.656.791-1.255.791-.834 0-1.282-.13-1.964-.432l-.276-.13-.292 1.818c.49.224 1.396.422 2.334.432 2.197.005 3.63-1.084 3.646-2.76l-.001.003Zm7.354 2.645-1.688-8.093h-1.62c-.5 0-.88.146-1.094.672l-3.11 7.422h2.198s.359-1 .438-1.213h2.688c.062.287.25 1.213.25 1.213H27.5Z" fill="#621FBE"/></g><defs><clipPath id="a"><path fill="#fff" d="M0 0h30v30H0z"/></clipPath></defs></svg>