<svg width="25" height="24" viewBox="0 0 25 24" fill="none" xmlns="http://www.w3.org/2000/svg">
	<path
		d="M1.52534 15.9536C1.34018 15.4611 1.6125 14.9169 2.1279 14.8111C2.54665 14.7251 2.97649 14.6822 3.42197 14.6822C4.6032 14.6822 5.67114 14.962 6.62579 15.5218C7.13171 15.8185 7.15837 16.508 6.74368 16.9227L4.60386 19.0625C4.19682 19.4696 3.52762 19.4517 3.18376 18.99C2.4916 18.0607 1.93326 17.0386 1.52534 15.9536ZM16.0337 10.0596C16.384 9.70179 16.9421 9.66401 17.368 9.92745C19.1196 11.011 20.9755 11.3668 22.9306 10.9946C23.542 10.8783 24.1501 11.2625 24.1546 11.8847C24.1549 11.9225 24.155 11.961 24.155 12.0002C24.155 13.2012 23.8635 14.5422 23.3154 16.0232C22.9237 17.0733 22.4665 17.9804 21.948 18.7404C21.6234 19.2162 20.9537 19.2364 20.5457 18.8298L14.6187 12.9214C14.23 12.534 14.2262 11.9057 14.6101 11.5136L16.0337 10.0596ZM7.88072 18.255C8.32204 17.8151 9.06174 17.8804 9.32573 18.4448C9.90002 19.6727 10.0402 20.9737 9.74295 22.3513C9.63072 22.8713 9.08316 23.1528 8.5832 22.971C7.65035 22.6316 6.78229 22.199 5.99318 21.6708C5.50336 21.3429 5.47361 20.6544 5.89106 20.2383L7.88072 18.255ZM12.0075 14.1161C12.3997 13.7322 13.0279 13.736 13.4154 14.1247L19.3205 20.0486C19.7284 20.4577 19.7077 21.1303 19.2431 21.4736C17.2209 22.9679 14.9381 23.7003 12.4105 23.6657C11.7778 23.657 11.3697 23.0246 11.4643 22.399C11.5284 21.9746 11.5613 21.5324 11.5613 21.0723C11.5613 20.3494 11.398 19.4981 11.0715 18.5303C10.8607 17.9053 10.6255 17.3533 10.3692 16.8742C10.1387 16.4432 10.1847 15.9009 10.5339 15.5589L12.0075 14.1161ZM9.44306 14.2437C9.06807 14.6204 8.46739 14.6316 8.03123 14.3279C7.12736 13.6986 6.09743 13.2655 5.00785 13.0613C4.00223 12.8717 3.02575 12.8569 2.07429 13.0211C1.45585 13.1277 0.837988 12.7389 0.833635 12.1113C0.833382 12.0749 0.833252 12.0379 0.833252 12.0002C0.833252 10.7991 1.12477 9.45809 1.67284 7.97716C2.06396 6.9286 2.52042 6.02258 3.03797 5.26333C3.36327 4.78612 4.03506 4.76703 4.44252 5.17633L10.7539 11.5161C11.1423 11.9063 11.1423 12.5371 10.7539 12.9272L9.44306 14.2437ZM17.4296 6.23676C17.0103 6.65612 16.3124 6.62356 16.0064 6.11548C15.1525 4.69724 14.9161 3.18999 15.2972 1.59804C15.4165 1.09958 15.9404 0.829526 16.418 1.01554C16.9192 1.21074 17.4615 1.47318 18.0447 1.80855C18.5684 2.10684 19.0393 2.40513 19.4553 2.69913C19.9305 3.03494 19.956 3.71034 19.5446 4.12178L17.4296 6.23676ZM23.455 8.04158C23.6431 8.54103 23.3633 9.0927 22.8397 9.19559C22.4275 9.27659 22.0044 9.31816 21.5663 9.31816C20.682 9.31816 19.8203 9.13755 18.9851 8.76846C18.4037 8.51156 18.3305 7.75519 18.7829 7.30869L20.718 5.39856C21.1404 4.9817 21.8341 5.02062 22.1628 5.51468C22.6867 6.30226 23.1167 7.14302 23.455 8.04158ZM13.4212 10.2599C13.0311 10.6483 12.4003 10.6484 12.0101 10.2599L5.67353 3.95177C5.26304 3.54311 5.28255 2.86834 5.74851 2.52427C7.76625 1.03437 10.0442 0.302677 12.5717 0.33449C13.2102 0.342526 13.6196 0.985271 13.5232 1.61645C13.4591 2.03615 13.427 2.47333 13.427 2.928C13.427 3.76758 13.6136 4.71211 13.9984 5.77325C14.2416 6.43658 14.5081 7.01605 14.8185 7.50873C15.1073 7.96713 15.1035 8.58488 14.7196 8.96715L13.4212 10.2599Z"
		fill="url(#paint0_linear_177_1599)"
	/>
	<defs>
		<linearGradient
			id="paint0_linear_177_1599"
			x1="8.1213"
			y1="7.62516"
			x2="21.2451"
			y2="18.5563"
			gradientUnits="userSpaceOnUse"
		>
			<stop stop-color="white" />
			<stop offset="1" stop-color="#DBE9FF" />
		</linearGradient>
	</defs>
</svg>