<svg width="25" height="24" viewBox="0 0 25 24" fill="none" xmlns="http://www.w3.org/2000/svg">
	<path
		d="M15.3766 0.42616C15.3771 0.42616 15.3775 0.42611 15.378 0.426013C17.3319 0.0282624 19.1749 0.955703 20.3998 2.32783L22.9008 5.13074C23.9917 6.35428 24.4773 8.07366 23.9654 9.6997C20.8883 19.4793 13.7133 22.9326 9.10646 23.6268C7.78521 23.8251 6.54126 23.2957 5.62397 22.482L2.97855 20.1399C1.20813 18.5722 0.320007 16.093 1.14251 13.7655C4.22673 5.03492 10.554 1.40651 15.3751 0.426303C15.3756 0.426207 15.3761 0.42616 15.3766 0.42616V0.42616ZM19.0552 5.54783C19.0727 5.45196 19.0707 5.35358 19.0495 5.25847C19.0283 5.16337 18.9882 5.07349 18.9317 4.99413C18.8752 4.91477 18.8033 4.84755 18.7203 4.79644C18.6374 4.74533 18.545 4.71136 18.4487 4.69654C18.3524 4.68173 18.2541 4.68636 18.1596 4.71018C18.0651 4.73399 17.9764 4.7765 17.8986 4.83519C17.8208 4.89389 17.7556 4.96757 17.7068 5.0519C17.658 5.13623 17.6265 5.22948 17.6144 5.32616C17.069 8.86116 15.2621 11.772 13.1694 13.923C11.065 16.0843 8.72438 17.426 7.19751 17.8605C7.10539 17.8868 7.01934 17.9309 6.94428 17.9904C6.86921 18.0499 6.8066 18.1236 6.76002 18.2073C6.66594 18.3763 6.64285 18.5757 6.69584 18.7618C6.74883 18.9478 6.87355 19.1052 7.04257 19.1993C7.21158 19.2934 7.41105 19.3164 7.59709 19.2635C9.42001 18.7443 11.9735 17.2422 14.2135 14.9395C16.4652 12.6266 18.4529 9.45033 19.0552 5.54783Z"
		fill="url(#paint0_linear_177_1575)"
	/>
	<defs>
		<linearGradient
			id="paint0_linear_177_1575"
			x1="8.12586"
			y1="7.62552"
			x2="21.2521"
			y2="18.5645"
			gradientUnits="userSpaceOnUse"
		>
			<stop stop-color="white" />
			<stop offset="1" stop-color="#DBE9FF" />
		</linearGradient>
	</defs>
</svg>