<svg width="25" height="24" viewBox="0 0 25 24" fill="none" xmlns="http://www.w3.org/2000/svg">
	<path
		d="M5.5171 8.1095C5.51747 8.10914 5.51764 8.10863 5.51757 8.10812C5.4357 7.54132 5.25929 6.86611 5.04784 6.0592L4.4167 3.63733C4.40949 3.61071 4.41736 3.58226 4.4373 3.56322C5.11241 2.91866 5.86189 2.35756 6.66947 1.89152C7.00094 1.70023 7.41306 1.74006 7.71817 1.97109L9.12685 3.03769C9.78136 3.53234 10.3307 3.94881 10.8181 4.2358C10.8603 4.26096 10.9026 4.28542 10.945 4.30913C11.3188 4.51817 11.5965 4.89244 11.5965 5.32068V7.64746C11.5965 7.94162 11.4189 8.20196 11.1862 8.38191L8.92816 10.154C8.77853 10.2714 8.57814 10.3172 8.40358 10.2417L6.04312 9.22061C5.75465 9.09583 5.58057 8.80412 5.55927 8.49054C5.55064 8.36352 5.53643 8.23686 5.51664 8.11091C5.51656 8.1104 5.51673 8.10987 5.5171 8.1095ZM3.21637 9.90316C2.87159 10.1995 2.38655 10.5296 1.65607 11.0243C1.31409 11.2565 0.860354 11.0021 0.909837 10.5917C1.09218 9.07929 1.57075 7.61823 2.3171 6.29172C2.56972 5.84275 3.20996 5.9551 3.34026 6.45351C3.56584 7.3203 3.71544 7.9001 3.78206 8.36091C3.84634 8.79955 3.81946 9.03988 3.747 9.23353C3.67687 9.42602 3.54363 9.62201 3.21637 9.90316ZM4.68435 17.6984C5.49665 17.6984 6.18038 17.6984 6.74022 17.7637C6.79067 17.7697 6.84075 17.7763 6.89045 17.7836C7.31309 17.8451 7.75956 17.7157 8.01916 17.3765L8.99715 16.0989C9.14487 15.9059 9.1602 15.6471 9.09062 15.4142L8.20118 12.4662C8.12198 12.2004 7.95909 11.9553 7.70446 11.8454L5.62521 10.9473C5.21449 10.7699 4.7432 10.8966 4.405 11.1895C4.3899 11.2026 4.37471 11.2156 4.35943 11.2284C3.92932 11.5982 3.35896 11.9844 2.68108 12.4452L1.45276 13.2776C1.13719 13.4915 0.966982 13.8669 1.03991 14.2411C1.23873 15.2612 1.57407 16.2501 2.03694 17.1812C2.19785 17.5049 2.53432 17.6984 2.89578 17.6984H4.68435ZM12.2708 9.75734C12.3285 9.71104 12.4002 9.68555 12.4742 9.68501C12.5443 9.68501 12.6145 9.70834 12.6787 9.75734L14.9368 11.5282C14.9976 11.5749 15.0432 11.6426 15.0665 11.7219C15.0902 11.8007 15.0902 11.8846 15.0665 11.9634L14.1806 14.9102C14.159 14.9853 14.1149 15.052 14.0544 15.1016C13.9957 15.1496 13.9222 15.176 13.8463 15.1762H11.1032C11.0272 15.1756 10.9537 15.1489 10.8952 15.1004C10.8348 15.0512 10.7908 14.9849 10.769 14.9102L9.88187 11.9634C9.85819 11.8846 9.85819 11.8007 9.88187 11.7219C9.90443 11.6454 9.95016 11.5778 10.0128 11.5282L12.2708 9.75734ZM14.1222 4.27196C14.6142 3.99548 15.1741 3.59067 15.8379 3.11119L17.3718 2.00075C17.6782 1.77895 18.0854 1.74586 18.4114 1.93759C19.0424 2.30865 19.6372 2.73786 20.188 3.21962C20.4598 3.45731 20.5618 3.83129 20.4706 4.18063L19.98 6.0592C19.7697 6.86649 19.5932 7.54196 19.5102 8.11009C19.4998 8.17654 19.4909 8.2432 19.4836 8.31C19.4379 8.72751 19.2063 9.11759 18.8197 9.28176L16.5537 10.244C16.3758 10.3196 16.1724 10.2721 16.0203 10.1528L13.7622 8.38074C13.5301 8.19888 13.3508 7.94011 13.3508 7.64525V5.34863C13.3508 4.91308 13.6369 4.53252 14.0211 4.32727C14.0548 4.30923 14.0885 4.29078 14.1222 4.27196ZM11.7116 2.72854C11.7112 2.72854 11.7108 2.72844 11.7105 2.72825C11.3214 2.49842 10.8517 2.14501 10.1484 1.6121C9.71914 1.28703 9.84447 0.623657 10.374 0.52625C11.0751 0.397281 11.7875 0.332596 12.5023 0.333506C13.2285 0.333506 13.9394 0.399899 14.6292 0.526829C15.188 0.629636 15.3106 1.33158 14.8503 1.6646C14.135 2.18141 13.6582 2.52556 13.2643 2.74604C12.8903 2.95603 12.6717 3.00736 12.4859 3.00503C12.299 3.0027 12.0829 2.94675 11.7127 2.72885C11.7123 2.72865 11.712 2.72854 11.7116 2.72854ZM20.6673 11.229C20.6673 11.2294 20.6674 11.2297 20.6677 11.23C21.0978 11.5985 21.668 11.9857 22.3456 12.4452L23.5492 13.2608C23.8643 13.4743 24.0345 13.8489 23.9624 14.2226C23.7644 15.2491 23.4281 16.2443 22.9628 17.1809C22.802 17.5047 22.4654 17.6984 22.1039 17.6984H20.5177C19.7054 17.6984 19.0217 17.6984 18.4618 17.7637C18.389 17.7714 18.3164 17.781 18.2442 17.7925C17.8386 17.8572 17.4101 17.7487 17.1454 17.4346L15.9589 16.0269C15.8174 15.8589 15.7954 15.6245 15.859 15.4142L16.7472 12.4662C16.8243 12.2032 16.9872 11.9616 17.2394 11.8544L19.6209 10.843C19.8995 10.7247 20.22 10.8101 20.4377 11.0202C20.5111 11.0911 20.5876 11.1602 20.6668 11.228C20.6671 11.2283 20.6673 11.2286 20.6673 11.229ZM15.7959 19.73C15.7959 19.7304 15.7958 19.7308 15.7956 19.7312C15.5608 20.2514 15.3446 20.9138 15.0876 21.7069L14.694 22.9204C14.5795 23.2732 14.2795 23.5373 13.9112 23.5818C13.0499 23.686 12.1797 23.6944 11.3165 23.6071C10.9409 23.5691 10.6323 23.3026 10.5158 22.9435L10.1145 21.7069C9.85733 20.9136 9.64111 20.2509 9.40618 19.7295C9.39024 19.6933 9.37381 19.6574 9.3569 19.6217C9.17044 19.228 9.16994 18.7549 9.43472 18.4091L10.3149 17.2594C10.4971 17.0214 10.8035 16.9261 11.1032 16.9261H13.8463C14.1692 16.9261 14.5011 17.0165 14.7092 17.2633L15.7808 18.5339C16.0231 18.8212 16.0363 19.2318 15.8706 19.5692C15.8447 19.6219 15.8199 19.6752 15.7961 19.7289C15.7959 19.7293 15.7959 19.7297 15.7959 19.73ZM8.46182 22.2925C8.18482 21.4409 7.99898 20.8716 7.80731 20.4516C7.62615 20.0491 7.47654 19.8683 7.31876 19.7516C7.16448 19.6373 6.95644 19.551 6.53568 19.502C6.09038 19.4495 5.5095 19.4483 4.63409 19.4483C4.18926 19.4483 3.95451 19.96 4.27003 20.2735C5.3329 21.3298 6.59036 22.173 7.97413 22.7558C8.26986 22.8804 8.56086 22.5977 8.46182 22.2925ZM18.6664 19.502C19.1117 19.4495 19.6925 19.4483 20.5679 19.4483C20.9328 19.4483 21.1267 19.869 20.8723 20.1306C19.8172 21.216 18.5603 22.087 17.1712 22.6945C16.9128 22.8075 16.6535 22.5608 16.7402 22.2925C17.0172 21.4409 17.2031 20.8716 17.3947 20.4516C17.5759 20.0491 17.7255 19.8683 17.8833 19.7516C18.0376 19.6373 18.2456 19.551 18.6664 19.502ZM21.2452 8.35975C21.2449 8.35975 21.2447 8.35948 21.2447 8.35917C21.3126 7.90078 21.4633 7.31994 21.6888 6.45351C21.8155 5.96721 22.4406 5.85808 22.6868 6.2962C23.4339 7.626 23.9121 9.09076 24.0926 10.6067C24.1398 11.0028 23.7022 11.249 23.3718 11.0254C22.6413 10.5296 22.1563 10.1995 21.8115 9.90316C21.4843 9.62201 21.3522 9.42602 21.2809 9.2347C21.2085 9.03996 21.1816 8.79977 21.2457 8.36033C21.2458 8.36003 21.2456 8.35975 21.2452 8.35975Z"
		fill="url(#paint0_linear_13_412)"
	/>
	<defs>
		<linearGradient
			id="paint0_linear_13_412"
			x1="8.12492"
			y1="7.62516"
			x2="21.2499"
			y2="18.5627"
			gradientUnits="userSpaceOnUse"
		>
			<stop stop-color="white" />
			<stop offset="1" stop-color="#DBE9FF" />
		</linearGradient>
	</defs>
</svg>