<svg width="25" height="25" viewBox="0 0 25 25" fill="none" xmlns="http://www.w3.org/2000/svg">
<path d="M4.17403 20.7586C5.97461 22.5575 8.30516 23.7105 10.8041 24.0606C11.43 24.1483 11.9221 23.5827 11.8898 22.9514C11.7428 20.0731 12.7599 17.1474 14.9537 14.9537C17.1474 12.761 20.0705 11.7438 22.9472 11.8896C23.5798 11.9217 24.1461 11.4274 24.0574 10.8002C23.7145 8.37402 22.6205 6.03597 20.7586 4.17403C18.8968 2.31219 16.558 1.21825 14.1325 0.87525C13.5053 0.786555 13.011 1.35282 13.043 1.98545C13.1888 4.86238 12.1717 7.7863 9.97899 9.97899C7.7841 12.1729 4.85899 13.1899 1.98078 13.0428C1.34969 13.0105 0.784155 13.5024 0.871633 14.1282C1.22098 16.6275 2.37424 18.9584 4.17403 20.7586Z" fill="url(#paint0_linear_229_1654)"/>
<path d="M16.4676 16.4665C15.5132 17.4217 14.8093 18.5977 14.4184 19.8902C14.1206 20.8746 14.0114 21.9035 14.0934 22.9231C14.1365 23.4587 14.6477 23.8127 15.1695 23.684C17.2243 23.1771 19.1086 22.1177 20.6138 20.6126C22.1188 19.1075 23.1782 17.2233 23.6851 15.1685C23.8139 14.6467 23.4598 14.1354 22.924 14.0924C21.9045 14.0106 20.8758 14.1199 19.8915 14.4176C18.599 14.8086 17.423 15.5123 16.4676 16.4665ZM8.17652 8.17535C9.13095 7.22014 9.83486 6.04413 10.2258 4.75165C10.5236 3.76714 10.6328 2.73823 10.5508 1.71862C10.5077 1.18301 9.9965 0.829015 9.47479 0.957665C7.41966 1.46444 5.53508 2.52372 4.0297 4.02892C2.52438 5.53405 1.46491 7.4184 0.957851 9.47335C0.829095 9.99516 1.18319 10.5065 1.71893 10.5495C2.7386 10.6313 3.76753 10.5221 4.7521 10.2243C6.04473 9.8334 7.22096 9.12961 8.17652 8.17535Z" fill="url(#paint1_linear_229_1654)"/>
<defs>
<linearGradient id="paint0_linear_229_1654" x1="8.07874" y1="8.07874" x2="21.2415" y2="19.0477" gradientUnits="userSpaceOnUse">
<stop stop-color="white"/>
<stop offset="1" stop-color="#DBE9FF"/>
</linearGradient>
<linearGradient id="paint1_linear_229_1654" x1="7.98823" y1="7.98786" x2="20.9875" y2="18.8211" gradientUnits="userSpaceOnUse">
<stop stop-color="white"/>
<stop offset="1" stop-color="#DBE9FF"/>
</linearGradient>
</defs>
</svg>
