<svg width="33" height="32" viewBox="0 0 33 32" fill="none" xmlns="http://www.w3.org/2000/svg">
	<path
		d="M26.4954 16.0164C26.4954 16.0164 26.4954 19.2612 26.0837 20.8259C25.853 21.6824 25.1777 22.3577 24.3213 22.5881C22.7566 23 16.4978 23 16.4978 23C16.4978 23 10.2554 23 8.67432 22.5718C7.81787 22.3413 7.14258 21.6658 6.91187 20.8093C6.5 19.2612 6.5 16 6.5 16C6.5 16 6.5 12.7554 6.91187 11.1907C7.14233 10.3342 7.83423 9.64233 8.67432 9.41187C10.239 9 16.4978 9 16.4978 9C16.4978 9 22.7566 9 24.3213 9.42822C25.1777 9.65869 25.853 10.3342 26.0837 11.1907C26.512 12.7554 26.4954 16.0164 26.4954 16.0164Z"
		fill="#621fbe"
	/>
	<path d="M14.5078 18.9971L19.7124 15.9995L14.5078 13.002V18.9971Z" fill="#faf8fb" />
</svg>